<svg width="583" height="506" viewBox="0 0 583 506" fill="none" xmlns="http://www.w3.org/2000/svg">
<path d="M168.449 69.6547C211.286 68.9098 254.128 68.8028 296.974 69.3337C339.814 69.8677 382.64 71.0424 425.452 72.8578C449.475 73.8766 473.489 75.0971 497.493 76.5193C499.421 76.6334 499.415 73.633 497.493 73.5193C454.724 70.9885 411.924 69.0948 369.092 67.8382C326.267 66.585 283.429 65.9726 240.579 66.0009C216.534 66.0169 192.491 66.2349 168.449 66.6547C166.52 66.6882 166.514 69.6883 168.449 69.6547V69.6547Z" fill="#808080"/>
<path d="M507.408 363H139.502C134.85 362.995 130.39 361.145 127.1 357.855C123.811 354.565 121.96 350.105 121.955 345.453V17.5474C121.96 12.8951 123.811 8.4349 127.1 5.14526C130.39 1.85562 134.85 0.00521683 139.502 0H507.408C512.06 0.00521684 516.52 1.85562 519.81 5.14526C523.099 8.4349 524.95 12.8951 524.955 17.5474V345.453C524.95 350.105 523.099 354.565 519.81 357.855C516.52 361.145 512.06 362.995 507.408 363V363ZM139.502 2C135.38 2.00469 131.429 3.64422 128.514 6.5589C125.599 9.47358 123.96 13.4254 123.955 17.5474V345.453C123.96 349.575 125.599 353.527 128.514 356.441C131.429 359.356 135.381 360.995 139.502 361H507.408C511.53 360.995 515.481 359.356 518.396 356.441C521.311 353.527 522.95 349.575 522.955 345.453V17.5474C522.95 13.4254 521.311 9.47358 518.396 6.5589C515.481 3.64422 511.53 2.00469 507.408 2H139.502Z" fill="#808080"/>
<path d="M138.893 223.106L268.272 222.712L396.991 222.321L469.602 222.1C469.991 222.087 470.359 221.923 470.63 221.643C470.9 221.363 471.051 220.989 471.051 220.6C471.051 220.211 470.9 219.837 470.63 219.557C470.359 219.277 469.991 219.113 469.602 219.1L340.223 219.494L211.504 219.885L138.893 220.106C138.504 220.119 138.136 220.283 137.865 220.563C137.595 220.843 137.444 221.217 137.444 221.606C137.444 221.995 137.595 222.369 137.865 222.649C138.136 222.929 138.504 223.092 138.893 223.106V223.106Z" fill="#808080"/>
<path d="M139.166 220.674L139.966 173.437C139.999 171.506 136.999 171.505 136.966 173.437L136.166 220.674C136.133 222.605 139.133 222.605 139.166 220.674Z" fill="#E6E6E6"/>
<path d="M223.001 221.185L224.951 161.81L225.508 144.846C225.571 142.915 222.571 142.918 222.508 144.846L220.558 204.221L220.001 221.185C219.938 223.116 222.938 223.114 223.001 221.185Z" fill="#808080"/>
<path d="M262.67 116.701C261.494 137.731 259.318 199.761 258.142 220.791C258.034 222.72 261.034 222.714 261.142 220.791C262.318 199.761 264.494 137.731 265.67 116.701C265.778 114.772 262.777 114.778 262.67 116.701Z" fill="#808080"/>
<path d="M375.15 146.589L375.489 203.297L375.586 219.535C375.6 219.924 375.764 220.293 376.044 220.563C376.323 220.833 376.697 220.984 377.086 220.984C377.475 220.984 377.849 220.833 378.129 220.563C378.409 220.293 378.573 219.924 378.586 219.535L378.247 162.827L378.15 146.589C378.136 146.2 377.973 145.831 377.693 145.561C377.413 145.291 377.039 145.14 376.65 145.14C376.261 145.14 375.887 145.291 375.607 145.561C375.327 145.831 375.163 146.2 375.15 146.589V146.589Z" fill="#808080"/>
<path d="M139.134 221.418C136.651 214.594 142.249 208.031 148 205.082C154.891 201.549 162.819 200.748 169.783 197.342C180.165 192.264 187.727 183.15 194.456 174.028C201.382 164.638 207.719 154.561 216.519 146.76C221.157 142.558 226.634 139.388 232.588 137.461C240.09 135.12 248.047 134.959 255.799 135.903C271.817 137.852 286.667 144.468 302.123 148.674C316.695 152.638 332.75 154.867 347.053 148.702C354.32 145.57 360.263 140.317 366.645 135.771C372.823 131.325 379.729 127.993 387.054 125.926C401.412 121.934 417.092 123 430.459 129.749C442.746 135.874 452.475 146.142 457.929 158.742C464.266 173.88 463.441 190.797 461.371 206.731C460.836 210.85 460.199 214.955 459.555 219.058C459.259 220.947 462.149 221.76 462.448 219.856C465.026 203.425 467.596 186.474 464.388 169.939C461.615 155.502 453.676 142.57 442.057 133.563C430.389 124.531 415.884 119.954 401.146 120.652C393.422 121.01 385.819 122.701 378.672 125.65C371.252 128.719 364.97 133.267 358.588 138.054C352.027 142.975 345.263 147.045 337.117 148.65C329.215 150.207 320.996 149.623 313.129 148.153C296.896 145.121 281.766 138.168 265.672 134.606C250.76 131.306 234.669 130.976 221.316 139.4C211.045 145.88 203.787 155.94 196.821 165.654C189.917 175.283 182.925 185.579 172.829 192.157C166.67 196.169 159.747 197.65 152.858 199.906C145.951 202.168 139.319 205.985 136.503 213.062C135.289 215.976 135.196 219.237 136.241 222.216C136.896 224.016 139.796 223.239 139.134 221.418V221.418Z" fill="#808080"/>
<path d="M367.579 168.184L321.082 170.769C320.82 170.783 320.562 170.697 320.362 170.527C320.162 170.357 320.034 170.117 320.006 169.856C319.978 169.595 320.05 169.333 320.209 169.124C320.368 168.915 320.601 168.776 320.86 168.733L368.385 161L367.579 168.184Z" fill="#3F3D56"/>
<path d="M420.091 291.249L437.612 261.771L450.563 267.888C450.563 267.888 428.247 295.759 427.536 296.561C427.841 297.916 427.727 299.331 427.209 300.62C426.692 301.908 425.796 303.009 424.639 303.777C423.482 304.545 422.12 304.944 420.731 304.921C419.343 304.897 417.994 304.453 416.864 303.647C415.734 302.84 414.875 301.71 414.401 300.405C413.927 299.1 413.861 297.681 414.21 296.338C414.56 294.994 415.309 293.788 416.359 292.879C417.409 291.971 418.71 291.402 420.091 291.249V291.249Z" fill="#FFB6B6"/>
<path d="M427.379 222.774L455.766 237.584C457.541 238.862 459.028 240.497 460.135 242.382C461.241 244.268 461.942 246.364 462.193 248.536C462.443 250.708 462.238 252.909 461.589 254.997C460.941 257.085 459.864 259.015 458.427 260.663L438.857 283.112L430.331 271.56L436.902 257.82L424.178 254.465L427.379 222.774Z" fill="#6C63FF"/>
<path d="M348.52 177.691L345.322 211.834L331 211.858C331 211.858 339.217 177.112 339.516 176.083C338.66 174.989 338.157 173.662 338.072 172.276C337.987 170.89 338.325 169.511 339.041 168.321C339.757 167.131 340.817 166.187 342.082 165.613C343.346 165.039 344.755 164.863 346.122 165.107C347.489 165.351 348.749 166.004 349.737 166.98C350.724 167.957 351.392 169.209 351.652 170.573C351.912 171.937 351.751 173.348 351.192 174.619C350.633 175.89 349.701 176.961 348.52 177.691V177.691Z" fill="#FFB6B6"/>
<path d="M374.991 258.037L342.027 251.991C328.145 250.322 322.449 241.188 324.953 232.28L333.014 203.609L345.668 210.394L345.619 225.624L363.333 223.202L374.991 258.037Z" fill="#6C63FF"/>
<path d="M361.376 493.962H352.312L348 459H361.378L361.376 493.962Z" fill="#FFB6B6"/>
<path d="M361.873 505.065L334 505.064V504.712C334 501.834 335.143 499.075 337.178 497.04C339.212 495.006 341.972 493.863 344.849 493.863H344.85L349.941 490L359.441 493.863L361.874 493.863L361.873 505.065Z" fill="#2F2E41"/>
<path d="M425.633 493.992H434.697L439.009 459.03H425.631L425.633 493.992Z" fill="#FFB6B6"/>
<path d="M425.313 503.448L453.187 503.447V503.095C453.186 500.217 452.043 497.458 450.009 495.423C447.974 493.389 445.215 492.246 442.338 492.246H442.337L437.245 488.383L427.746 492.246L425.313 492.246L425.313 503.448Z" fill="#2F2E41"/>
<path d="M347.723 433.338C347.857 431.343 348.921 420.31 348.921 420.31L351.47 396.913L355.964 334.891L359.969 318.589L379.795 326.312L395.882 318.6L415.003 324.712L429.891 330.296C429.891 330.296 429.917 332.686 430.032 335.573C430.185 339.353 430.452 343.986 431.09 345.191C432.154 347.32 431.886 358.748 431.886 358.748C431.886 358.748 432.944 381.999 434.276 384.548C435.609 387.097 435.876 392.407 435.475 393.471C435.073 394.535 436.807 422.458 436.807 422.458C436.807 422.458 441.256 471.871 438.465 479.322C435.673 486.773 425.124 481.892 425.124 481.892C425.124 481.892 425.634 479.904 422.574 478.967C419.515 478.03 410.197 407.965 410.197 407.965C410.197 407.965 408.463 393.598 406.87 389.481C405.276 385.364 403.811 373.796 403.811 373.796C403.811 373.796 393.97 354.649 393.842 350.392C393.842 350.392 392.555 346.408 391.337 350.793C390.12 355.178 386.532 365.682 386.532 365.682L383.033 378.582L378.915 397.856L376.251 414.083C376.251 414.083 372.261 435.62 371.624 436.55C370.986 437.481 371.624 457.156 371.624 457.156C371.624 457.156 368.539 473.912 364.179 476.838C359.82 479.763 348.27 476.884 348.27 476.884C348.27 476.884 347.589 435.333 347.723 433.338Z" fill="#2F2E41"/>
<path d="M362.544 266.132L360.01 298.95L356.204 302.889C355.861 303.245 355.593 303.665 355.416 304.126C355.24 304.588 355.158 305.08 355.176 305.573C355.194 306.067 355.311 306.552 355.521 306.999C355.731 307.446 356.029 307.846 356.397 308.175V308.175L354.3 311.771L353.557 323.101C353.346 323.983 353.331 324.9 353.515 325.788C353.699 326.676 354.076 327.512 354.621 328.237C355.165 328.962 355.863 329.558 356.664 329.982C357.465 330.407 358.351 330.649 359.256 330.691L424.888 333.775C425.789 333.817 426.688 333.661 427.521 333.318C428.355 332.975 429.103 332.453 429.713 331.789C430.323 331.124 430.779 330.335 431.051 329.475C431.322 328.615 431.401 327.706 431.282 326.812L425.701 284.798V281.657L423.203 275.59L424.487 255.266L427.474 223.007L410.111 218.522L400.697 212.045L384.343 212.306L374.419 220.456L361.187 222.528L351.181 224.517L349.906 227.288L352.455 226.734L361.696 262.775L362.544 266.132Z" fill="#6C63FF"/>
<path d="M392.154 207.648C402.794 207.648 411.42 199.022 411.42 188.382C411.42 177.742 402.794 169.116 392.154 169.116C381.514 169.116 372.888 177.742 372.888 188.382C372.888 199.022 381.514 207.648 392.154 207.648Z" fill="#FFB6B6"/>
<path d="M387.509 206.405L401.429 205.695C403.212 205.604 405.159 205.447 406.456 204.219C407.154 203.461 407.691 202.569 408.034 201.598C409.321 198.609 410.608 195.62 411.862 192.616C413.597 188.463 415.3 184.077 414.857 179.597C414.753 177.551 413.896 175.616 412.449 174.166C411.711 173.467 410.762 173.032 409.75 172.93C408.739 172.827 407.722 173.063 406.859 173.599C406.644 172.183 406.11 170.833 405.298 169.653C404.485 168.472 403.414 167.493 402.167 166.787C399.648 165.395 396.772 164.786 393.905 165.035C389.744 165.303 385.773 166.869 382.548 169.511C381.641 170.348 380.673 171.115 379.651 171.807C379.137 172.151 378.559 172.386 377.951 172.498C377.343 172.611 376.718 172.598 376.115 172.461C375.518 172.301 374.999 171.931 374.654 171.418C374.308 170.906 374.16 170.285 374.237 169.672C373.257 170.405 372.584 171.477 372.352 172.678C372.119 173.88 372.342 175.126 372.978 176.172C372.255 176.474 371.466 176.585 370.688 176.493C369.91 176.401 369.169 176.109 368.537 175.646C367.86 175.982 367.261 176.456 366.777 177.037C366.294 177.618 365.937 178.294 365.73 179.021C365.523 179.748 365.47 180.51 365.574 181.258C365.678 182.007 365.938 182.726 366.336 183.368C366.734 184.011 367.262 184.563 367.886 184.99C368.51 185.416 369.216 185.708 369.959 185.846C370.702 185.984 371.466 185.966 372.201 185.791C372.937 185.617 373.628 185.291 374.23 184.835C375.075 186.018 374.76 187.626 374.65 189.076C374.54 190.525 374.929 192.327 376.327 192.728C378.216 193.27 379.747 190.726 381.712 190.753C382.197 190.792 382.664 190.951 383.073 191.214C383.482 191.478 383.82 191.838 384.056 192.263C384.519 193.117 384.836 194.043 384.994 195.002L387.509 206.326" fill="#2F2E41"/>
<path d="M581.774 417.469L582.34 418.9H581.774V417.469Z" fill="#2F2E41"/>
<path d="M305.815 256.027H288.669C287.726 256.026 286.815 255.685 286.103 255.066C285.391 254.448 284.926 253.593 284.794 252.66C283.735 244.869 283.735 236.971 284.794 229.18C284.925 228.258 285.38 227.412 286.079 226.795C286.777 226.178 287.672 225.83 288.604 225.814C293.998 223.395 299.808 223.396 305.874 225.813C306.439 225.821 306.996 225.952 307.505 226.197C308.014 226.443 308.463 226.797 308.821 227.234C309.193 227.689 309.46 228.222 309.602 228.793C309.743 229.364 309.755 229.959 309.638 230.536C308.261 237.39 308.261 244.45 309.638 251.304C309.755 251.88 309.743 252.476 309.602 253.047C309.46 253.618 309.193 254.151 308.821 254.606C308.457 255.051 307.998 255.409 307.478 255.655C306.959 255.901 306.39 256.028 305.815 256.027V256.027Z" fill="#6C63FF"/>
<path d="M304.341 236.804H289.91C289.791 236.805 289.673 236.782 289.562 236.738C289.452 236.693 289.352 236.626 289.267 236.543C289.182 236.459 289.115 236.359 289.069 236.249C289.024 236.139 289 236.021 289 235.902C289 235.783 289.024 235.665 289.069 235.555C289.115 235.445 289.182 235.345 289.267 235.261C289.352 235.178 289.452 235.111 289.562 235.066C289.673 235.022 289.791 234.999 289.91 235H304.341C304.46 234.999 304.579 235.022 304.689 235.066C304.799 235.111 304.9 235.178 304.984 235.261C305.069 235.345 305.136 235.445 305.182 235.555C305.228 235.665 305.251 235.783 305.251 235.902C305.251 236.021 305.228 236.139 305.182 236.249C305.136 236.359 305.069 236.459 304.984 236.543C304.9 236.626 304.799 236.693 304.689 236.738C304.579 236.782 304.46 236.805 304.341 236.804V236.804Z" fill="white"/>
<path d="M304.341 245.804H289.91C289.791 245.805 289.673 245.782 289.562 245.738C289.452 245.693 289.352 245.626 289.267 245.543C289.182 245.459 289.115 245.359 289.069 245.249C289.024 245.139 289 245.021 289 244.902C289 244.783 289.024 244.665 289.069 244.555C289.115 244.445 289.182 244.345 289.267 244.261C289.352 244.178 289.452 244.111 289.562 244.066C289.673 244.022 289.791 243.999 289.91 244H304.341C304.46 243.999 304.579 244.022 304.689 244.066C304.799 244.111 304.9 244.178 304.984 244.261C305.069 244.345 305.136 244.445 305.182 244.555C305.228 244.665 305.251 244.783 305.251 244.902C305.251 245.021 305.228 245.139 305.182 245.249C305.136 245.359 305.069 245.459 304.984 245.543C304.9 245.626 304.799 245.693 304.689 245.738C304.579 245.782 304.46 245.805 304.341 245.804Z" fill="white"/>
<path d="M304.342 252.804H289.91C289.791 252.805 289.673 252.783 289.563 252.738C289.452 252.693 289.352 252.627 289.267 252.543C289.183 252.459 289.115 252.359 289.069 252.249C289.024 252.139 289 252.021 289 251.902C289 251.783 289.024 251.665 289.069 251.555C289.115 251.445 289.183 251.345 289.267 251.261C289.352 251.177 289.452 251.111 289.563 251.066C289.673 251.021 289.791 250.999 289.91 251H304.342C304.461 250.999 304.579 251.021 304.69 251.066C304.8 251.111 304.901 251.177 304.985 251.261C305.07 251.345 305.137 251.445 305.183 251.555C305.229 251.665 305.252 251.783 305.252 251.902C305.252 252.021 305.229 252.139 305.183 252.249C305.137 252.359 305.07 252.459 304.985 252.543C304.901 252.627 304.8 252.693 304.69 252.738C304.579 252.783 304.461 252.805 304.342 252.804V252.804Z" fill="white"/>
<path d="M166.385 340.918C167.071 340.229 167.596 339.398 167.926 338.484C168.256 337.57 168.381 336.595 168.293 335.628C168.204 334.66 167.905 333.723 167.416 332.884C166.927 332.044 166.259 331.322 165.461 330.769L176.043 278.208L164.357 281.96L155.887 332.799C155.046 334.202 154.748 335.865 155.051 337.473C155.354 339.08 156.236 340.521 157.53 341.522C158.824 342.522 160.44 343.014 162.072 342.902C163.704 342.791 165.239 342.085 166.385 340.918H166.385Z" fill="#9E616A"/>
<path d="M182.01 229.714L174.76 224.241C174.76 224.241 168.364 223.788 167.231 235.323C166.098 246.857 163.772 269.336 163.772 269.336L152.677 320.723L168.035 324.094L179.919 268.639L187.047 252.171L182.01 229.714Z" fill="#CCCCCC"/>
<path d="M170.057 313.623L210.914 312.942L214.319 285.023H170.057V313.623Z" fill="#9E616A"/>
<path d="M206.828 485.427H216.26L220.747 449.046L206.826 449.047L206.828 485.427Z" fill="#9E616A"/>
<path d="M146 485.478L155.432 485.411L159.664 449L147.397 451.814L146 485.478Z" fill="#9E616A"/>
<path d="M177.238 260.98L175.101 266.536L175.528 272.093L217.355 286.58L215.28 262.262L210.578 256.705L177.238 260.98Z" fill="#FFB6B6"/>
<path d="M195.182 210.975C203.433 210.975 210.121 204.287 210.121 196.036C210.121 187.786 203.433 181.098 195.182 181.098C186.932 181.098 180.243 187.786 180.243 196.036C180.243 204.287 186.932 210.975 195.182 210.975Z" fill="#9E616A"/>
<path d="M204.488 480.774L219.399 479.884V486.273L233.574 496.063C234.274 496.546 234.802 497.241 235.079 498.045C235.357 498.849 235.37 499.721 235.116 500.534C234.863 501.346 234.357 502.056 233.672 502.56C232.986 503.065 232.158 503.337 231.307 503.337H213.556L210.496 497.018L209.301 503.337H202.608L204.488 480.774Z" fill="#2F2E41"/>
<path d="M144.511 481.67L159.415 480.676L159.46 487.064L173.703 496.754C174.407 497.233 174.939 497.924 175.222 498.726C175.505 499.529 175.524 500.401 175.277 501.215C175.029 502.029 174.528 502.742 173.846 503.251C173.164 503.76 172.338 504.038 171.487 504.044L153.736 504.168L150.632 497.871L149.482 504.198L142.789 504.245L144.511 481.67Z" fill="#2F2E41"/>
<path d="M144.803 458.407L151.671 403.509L159.842 345.628C153.858 334.515 167.333 300.004 167.333 300.004L169.235 300.096L212.285 308.217L212.276 308.176C221.081 332.192 223.998 344.056 223.515 369.63L221.781 461.565H222.325C223.228 461.565 224.094 461.924 224.732 462.563C225.371 463.201 225.73 464.067 225.73 464.97C225.73 465.873 225.371 466.739 224.732 467.378C224.094 468.016 223.228 468.375 222.325 468.375H205.301C204.854 468.376 204.41 468.288 203.996 468.117C203.583 467.947 203.207 467.696 202.89 467.38C202.573 467.064 202.322 466.688 202.15 466.275C201.979 465.861 201.891 465.418 201.891 464.97C201.891 464.523 201.979 464.079 202.15 463.666C202.322 463.252 202.573 462.877 202.89 462.561C203.207 462.244 203.583 461.994 203.996 461.823C204.41 461.652 204.854 461.565 205.301 461.565H205.74L190.114 352.098L176.866 398.061L161.885 457.985C167.333 456.623 166.487 459.778 166.487 461.565C166.487 462.468 166.128 463.335 165.49 463.973C164.851 464.612 163.985 464.97 163.082 464.97H146.059C145.267 464.971 144.5 464.696 143.889 464.191C143.279 463.687 142.863 462.986 142.714 462.208C142.566 461.43 142.693 460.625 143.074 459.931C143.455 459.237 144.067 458.698 144.803 458.407H144.803Z" fill="#2F2E41"/>
<path d="M163.981 301.792L165.343 288.173C165.484 287.617 165.798 287.121 166.239 286.754C166.68 286.388 167.226 286.171 167.798 286.134C168.365 279.646 170.753 251.658 170.895 250.437L170.901 250.386L171.987 227.194C172.026 226.352 172.374 225.554 172.965 224.952C173.556 224.35 174.347 223.987 175.189 223.932L180.923 223.557C181.002 223.555 181.076 223.522 181.131 223.465C181.186 223.408 181.216 223.333 181.216 223.254C181.216 222.621 181.341 221.994 181.583 221.409C181.826 220.824 182.181 220.292 182.629 219.844C183.076 219.397 183.608 219.041 184.193 218.799C184.778 218.557 185.405 218.432 186.038 218.432H203.015C204.115 218.432 205.176 218.834 206.001 219.562C206.825 220.289 207.356 221.293 207.493 222.384C207.5 222.459 207.536 222.529 207.592 222.579C207.649 222.629 207.722 222.656 207.798 222.654H207.8C209.729 222.614 211.608 223.267 213.097 224.495C214.586 225.722 215.585 227.442 215.914 229.344C218.235 242.848 222.886 273.496 220.586 290.535C219.786 296.467 221.512 291.769 221.814 296.732C221.844 297.212 221.779 297.692 221.623 298.147C221.467 298.601 221.223 299.021 220.905 299.381C221.557 299.617 222.089 300.102 222.385 300.729C222.682 301.355 222.72 302.074 222.49 302.728L222.789 302.654C222.701 303.001 222.546 303.327 222.333 303.614C222.119 303.901 221.851 304.143 221.544 304.327C221.237 304.51 220.897 304.631 220.543 304.683C220.189 304.735 219.828 304.717 219.482 304.63L175.066 310.648C173.607 310.28 163.613 303.251 163.981 301.792Z" fill="#CCCCCC"/>
<path d="M291.811 240.637C291.532 241.568 291.053 242.427 290.407 243.152C289.761 243.878 288.964 244.454 288.072 244.838C287.179 245.222 286.214 245.406 285.242 245.377C284.271 245.348 283.318 245.106 282.451 244.669L265.28 260.339L263 248.279L279.666 235.286C280.497 233.877 281.817 232.822 283.374 232.321C284.931 231.82 286.618 231.908 288.115 232.567C289.612 233.227 290.815 234.413 291.496 235.9C292.177 237.387 292.289 239.073 291.811 240.637H291.811Z" fill="#9E616A"/>
<path d="M222.901 234.442C222.901 234.442 216.914 220.911 209.352 223.601C201.79 226.29 205.694 239.419 205.694 239.419L234.105 282.23C234.105 282.23 275.084 255.943 270.101 255.757C265.118 255.571 263.628 246.508 263.628 246.508L241.969 257.33L241.237 253.477L240.062 254.652L237.031 252.266L222.901 234.442Z" fill="#CCCCCC"/>
<path d="M524.321 504.2L-9.32149 505C-9.50162 504.998 -9.67419 504.67 -9.80138 504.089C-9.92857 503.508 -10 502.721 -10 501.9C-10 501.08 -9.92857 500.292 -9.80138 499.711C-9.67419 499.13 -9.50162 498.802 -9.32149 498.8L524.321 498C524.502 498.002 524.674 498.33 524.801 498.911C524.929 499.492 525 500.279 525 501.1C525 501.92 524.929 502.708 524.801 503.289C524.674 503.87 524.502 504.197 524.321 504.2V504.2Z" fill="#CACACA"/>
<path d="M177.6 186.889C175.309 187.989 172.744 186.335 170.766 184.696L171.474 185.307C167.978 188.708 166.343 193.602 165.544 198.419C164.745 203.231 164.656 208.152 163.649 212.93C162.642 217.703 160.552 222.499 156.649 225.422C151.42 229.338 144.208 229.086 137.791 227.886C137.706 227.869 137.626 227.856 137.54 227.838C139.267 222.853 139.969 217.57 139.604 212.307C137.884 217.581 134.956 222.381 131.053 226.323C126.798 225.153 122.645 223.64 118.635 221.799C116.04 220.604 113.246 218.971 112.526 216.206C111.804 213.462 113.48 210.583 115.722 208.85C117.964 207.117 120.716 206.213 123.27 204.979C125.819 203.75 128.343 201.998 129.364 199.353C131.718 193.269 125.01 186.288 127.625 180.307C128.914 177.366 132.071 175.767 135.039 174.533C139.57 172.656 144.222 171.086 148.965 169.836C153.128 168.738 157.475 167.885 161.716 168.605C165.957 169.324 170.112 171.904 171.638 175.932C174.185 176.792 176.889 177.763 178.524 179.906C180.157 182.045 180.026 185.727 177.6 186.889Z" fill="#2F2E41"/>
<path d="M197.986 179.839C191.432 174.665 186.132 175.548 182.044 178.763C181.357 177.998 178.432 180.102 177.441 179.8L173.86 186.524C172.016 189.776 171.26 193.097 171.558 194.965C168.168 204.473 176.208 210.893 185.716 214.284C189.51 215.646 193.649 215.706 197.481 214.454L197.598 212.834L198.318 214.162C198.318 214.162 207.01 232.059 209.064 232.863C207.817 229.63 204.53 214.264 203.613 211.061C202.355 206.704 203.214 199.78 203.953 195.535C204.414 192.918 204.439 190.243 204.025 187.618L204.007 187.503L206.04 191.609L210.603 188.74C208.859 183.66 208.824 177.584 197.986 179.839Z" fill="#2F2E41"/>
<path d="M128.813 359.801C127.491 359.531 126.245 358.974 125.161 358.17C124.077 357.365 123.183 356.333 122.541 355.144C121.899 353.956 121.524 352.641 121.444 351.292C121.364 349.943 121.581 348.594 122.078 347.337L84 265.438L103.317 260L134.706 342.314C136.757 343.291 138.379 344.987 139.265 347.082C140.151 349.176 140.239 351.524 139.513 353.679C138.786 355.835 137.296 357.648 135.324 358.777C133.352 359.905 131.035 360.269 128.813 359.801V359.801Z" fill="#D0CDE1"/>
<path d="M55.0017 492H65.1652L70 451H55L55.0017 492Z" fill="#D0CDE1"/>
<path d="M85.6992 501.904L52.2741 501.906L52.2735 488.992L72.7844 488.991C76.2095 488.99 79.4943 490.351 81.9163 492.773C84.3383 495.194 85.6991 498.479 85.6992 501.904V501.904V501.904Z" fill="#D0CDE1"/>
<path d="M-1 480.802L8.91004 485L30 449.195L15.3728 443L-1 480.802Z" fill="#D0CDE1"/>
<path d="M24.0139 501.906L-6.71147 488.746L-1.62686 476.874L17.2274 484.95C20.3758 486.299 22.8596 488.843 24.1323 492.022C25.405 495.202 25.3624 498.757 24.0139 501.906V501.906V501.906Z" fill="#D0CDE1"/>
<path d="M81 226C92.598 226 102 216.598 102 205C102 193.402 92.598 184 81 184C69.402 184 60 193.402 60 205C60 216.598 69.402 226 81 226Z" fill="#D0CDE1"/>
<path d="M65.4237 481.932L53.7887 479.707C52.8323 479.53 51.9781 478.996 51.397 478.214C50.816 477.431 50.5511 476.457 50.6554 475.486L58.3708 399.999C58.4444 399.279 58.2585 398.556 57.8466 397.961C57.4347 397.367 56.8242 396.94 56.1258 396.759C55.4274 396.577 54.6873 396.653 54.0396 396.972C53.3919 397.291 52.8796 397.832 52.5955 398.498L18.9122 477.366C18.7097 477.84 18.4155 478.269 18.0465 478.628C17.6776 478.986 17.2412 479.268 16.7629 479.456C16.2846 479.645 15.7738 479.736 15.2601 479.724C14.7465 479.713 14.2402 479.599 13.7707 479.389L4.30762 475.169C3.42419 474.779 2.71825 474.071 2.3287 473.185C1.93914 472.298 1.89419 471.298 2.20268 470.38L25.2399 401.028C25.3047 400.833 25.3496 400.631 25.3737 400.427L32.8516 337.061C32.9332 336.369 33.1981 335.712 33.6189 335.158C34.0398 334.604 34.601 334.174 35.2441 333.912L58.8557 324.286C59.5542 324.002 60.3203 323.927 61.0603 324.072C61.8003 324.217 62.4821 324.576 63.0224 325.103L92.8255 354.224C93.2899 354.675 93.6339 355.237 93.8259 355.857C94.0179 356.476 94.0517 357.135 93.9244 357.771L69.9548 478.866C69.7773 479.748 69.3013 480.543 68.6074 481.114C67.9135 481.685 67.0444 481.998 66.1469 482C65.9043 482 65.6621 481.977 65.4237 481.932Z" fill="#D0CDE1"/>
<path d="M52.0605 340.16C47.9106 335.34 44.8819 333.153 42.8105 333.498C40.7553 333.831 39.5697 336.711 38.3142 339.76C36.6007 343.923 34.6585 348.641 29.8712 349.009C29.1258 349.138 28.3595 349.053 27.6598 348.766C26.9601 348.478 26.3551 347.999 25.9141 347.382C22.1485 341.765 31.1806 323.174 32.0058 321.504L31.5823 233.578C31.5765 232.868 31.7634 232.171 32.1229 231.56C32.4825 230.949 33.0011 230.448 33.6232 230.11C58.4436 216.684 91.9579 240.034 98.424 244.853C98.9414 245.237 99.3556 245.744 99.6297 246.328C99.9037 246.913 100.029 247.556 99.9943 248.201C99.214 262.927 95.322 337.223 95.322 353.796C95.322 358.384 93.7444 361.3 90.6329 362.46C89.5824 362.834 88.4737 363.016 87.3592 362.999C77.8656 362.999 62.3165 352.072 52.0605 340.16Z" fill="#D0CDE1"/>
<path d="M86.4931 297.36C85.9668 297.027 85.5305 296.575 85.2209 296.043C84.9114 295.511 84.7376 294.915 84.7142 294.303L83.0095 255.501C82.9045 253.112 83.675 250.765 85.1831 248.879C86.6913 246.993 88.8387 245.692 91.2411 245.208C93.6435 244.725 96.1441 245.09 98.2954 246.239C100.447 247.388 102.108 249.246 102.983 251.48L115.741 284.068C116.114 285.024 116.083 286.085 115.654 287.018C115.226 287.952 114.435 288.681 113.455 289.047L90.0788 297.742C89.4935 297.963 88.8622 298.044 88.2382 297.977C87.6142 297.911 87.0157 297.699 86.4931 297.36V297.36Z" fill="#D0CDE1"/>
<path d="M28.5068 359.368C27.3884 358.607 26.4486 357.606 25.7535 356.437C25.0584 355.268 24.6249 353.959 24.4837 352.602C24.3424 351.246 24.4968 349.874 24.9359 348.584C25.375 347.294 26.0883 346.117 27.0253 345.136L23 254L42.9126 256.373L40.601 345.318C42.1244 347.02 42.9778 349.23 42.9996 351.527C43.0214 353.824 42.21 356.049 40.7192 357.781C39.2284 359.513 37.1618 360.631 34.911 360.924C32.6602 361.216 30.3815 360.663 28.5068 359.368H28.5068Z" fill="#D0CDE1"/>
<path d="M13.7532 278.359C13.3827 277.852 13.1397 277.265 13.0449 276.645C12.95 276.025 13.006 275.392 13.2082 274.799L25.8314 237.054C26.6084 234.73 28.1899 232.758 30.2926 231.49C32.3953 230.222 34.8822 229.741 37.3081 230.133C39.734 230.526 41.9406 231.766 43.5332 233.631C45.1257 235.497 46.0001 237.867 46 240.316V276.048C45.9988 277.096 45.5807 278.1 44.8375 278.841C44.0942 279.582 43.0865 279.999 42.0353 280H16.9696C16.3407 280.003 15.7203 279.856 15.1605 279.57C14.6008 279.285 14.1181 278.869 13.7532 278.359V278.359Z" fill="#D0CDE1"/>
<path d="M67.1385 219.111C66.342 219.731 65.3471 220.045 64.3365 219.995C63.3259 219.945 62.3674 219.534 61.6369 218.839C57.077 214.605 53.2287 209.542 51.2811 203.678C49.0494 196.959 49.6195 189.09 53.8932 183.43C57.506 178.645 63.2245 175.942 68.8571 173.829C71.0559 172.905 73.379 172.306 75.7525 172.05C78.15 171.803 80.5521 172.473 82.4698 173.924C83.4043 174.665 84.0922 175.669 84.4438 176.805C84.7955 177.94 84.7944 179.154 84.4409 180.289C87.3295 177.683 90.8535 175.872 94.6638 175.036C97.0756 174.401 99.6245 174.506 101.975 175.337C105.242 176.671 107.364 179.931 108.341 183.302C109.15 185.874 109.215 188.62 108.53 191.227C108.179 192.523 107.557 193.731 106.706 194.774C105.854 195.816 104.792 196.669 103.588 197.278C100.599 198.677 97.0524 198.149 93.9275 197.084C90.8027 196.019 87.8399 194.448 84.6079 193.769C81.3758 193.09 77.6441 193.486 75.357 195.854C73.7465 197.522 73.1123 199.868 72.5363 202.107L69.5401 213.753C69.2095 215.45 68.5768 217.074 67.6719 218.55C67.5204 218.76 67.341 218.949 67.1385 219.111V219.111Z" fill="#D0CDE1"/>
<path d="M154.616 372H132.441C131.875 371.999 131.327 371.799 130.895 371.436C130.464 371.073 130.177 370.57 130.085 370.017C128.638 360.727 128.638 351.273 130.085 341.983C130.177 341.43 130.464 340.927 130.895 340.564C131.327 340.201 131.875 340.001 132.441 340H154.616C154.976 339.999 155.331 340.079 155.654 340.234C155.977 340.389 156.261 340.615 156.482 340.894C156.709 341.178 156.867 341.509 156.945 341.862C157.023 342.215 157.018 342.581 156.931 342.932C154.857 351.523 154.857 360.477 156.931 369.068C157.018 369.419 157.023 369.785 156.945 370.138C156.867 370.491 156.709 370.822 156.482 371.106C156.261 371.385 155.977 371.611 155.654 371.766C155.331 371.921 154.976 372.001 154.616 372Z" fill="#D0CDE1"/>
</svg>




