<svg width="943" height="652" viewBox="0 0 943 652" fill="none" xmlns="http://www.w3.org/2000/svg">
<path d="M729.704 311.07C727.91 306.457 730.472 304.151 731.498 300.051C732.523 295.951 729.191 283.138 729.191 283.138C729.191 283.138 718.428 238.805 715.097 230.092C713.687 226.405 710.626 223.869 707.562 222.165C707.355 221.034 707.055 220.305 706.64 220.098C703.672 218.613 696.278 215.388 691.35 214.497C690.428 212.913 689.336 211.435 688.091 210.09C688.956 208.429 689.357 206.566 689.252 204.696C688.938 199.861 685.277 195.529 685.753 190.707C686.114 187.051 688.788 184.047 689.819 180.52C690.252 178.937 690.354 177.281 690.12 175.656C689.886 174.03 689.32 172.471 688.458 171.074C689.216 171.88 689.974 172.686 690.732 173.493C691.763 171.947 692.259 170.107 692.145 168.252C692.03 166.398 691.311 164.632 690.098 163.225C687.698 160.574 683.684 159.579 681.822 156.526C679.908 153.388 680.935 149.125 679.126 145.926C674.693 138.089 663.344 143.644 656.547 140.909C653.754 139.785 651.63 138.548 648.488 138.637C645.816 138.79 643.174 139.284 640.626 140.105C636.972 141.163 633.792 143.442 631.617 146.563C631.831 146.319 632.067 146.094 632.32 145.891C633.968 144.6 636.856 144.707 637.726 146.611C637.934 147.089 638.021 147.611 637.98 148.131C637.837 150.425 635.832 152.139 633.841 153.287C631.849 154.435 629.608 155.396 628.309 157.292C626.163 160.421 627.425 164.621 627.426 168.415C627.408 170.826 626.85 173.202 625.793 175.369C624.735 177.536 623.205 179.438 621.315 180.935L628.546 177.979C625.093 184.022 622.827 190.669 621.868 197.562L631.645 189.485C628.024 195.248 625.823 201.789 625.224 208.569L633.071 200.528C633.429 201.156 633.608 201.869 633.589 202.592L632.771 205.748C632.482 206.375 632.161 206.986 631.811 207.58C630.548 209.749 629.242 212.418 630.423 214.632L630.429 214.629C629.186 218.812 627.31 222.997 623.138 225.031C627.766 225.515 632.596 223.201 634.685 219.519C635.026 220.181 635.438 220.805 635.913 221.379C636.047 221.547 636.18 221.714 636.313 221.881L635.16 222.65L632.069 224.711C632.069 224.711 611.825 228.811 613.106 236.498C613.159 236.815 613.222 237.192 613.293 237.616L607.468 247.518L599.012 276.219C599.012 276.219 594.655 285.444 595.424 289.288C596.193 293.132 595.424 294.669 595.424 301.588C595.424 308.507 592.093 311.326 595.424 316.964C598.755 322.601 608.749 339.002 608.749 339.002L610.945 340.648C610.838 341.637 610.875 342.637 611.056 343.615C613.106 353.865 632.325 452.012 632.325 452.012C632.325 452.012 622.587 529.659 642.319 534.528C644.794 535.138 647.224 535.693 649.585 536.186L652.57 555.797L650.776 580.654C650.776 580.654 637.194 611.405 662.051 613.199C686.908 614.993 675.633 586.548 675.633 586.548C676.945 584.12 677.482 581.347 677.171 578.604C676.917 576.323 674.783 564.452 672.691 553.035C682.124 551.904 680.359 541.892 679.102 537.49C679.646 537.173 680.054 536.665 680.246 536.065C680.53 535.043 679.868 531.022 678.669 525.387C677.692 519.785 676.022 510.716 674.883 504.572L681.014 505.57L706.897 353.865C706.897 353.865 707.067 351.45 706.989 347.918C710.528 346.088 714.177 344.479 717.916 343.102C726.372 339.771 729.704 327.47 732.522 322.345C735.341 317.22 731.498 315.683 729.704 311.07ZM637.808 214.479C638.646 213.901 639.627 213.569 640.643 213.517C640.424 214.709 638.374 215.057 636.655 215.682C636.971 215.22 637.36 214.813 637.808 214.479ZM624.894 290.825C626.97 294.236 623.211 303.479 619.824 310.814C617.882 309.141 615.857 309.669 618.231 304.92C619.85 301.91 620.811 298.591 621.05 295.182C621.05 294.596 621.35 290.291 623.875 288.502C624.141 289.307 624.482 290.085 624.894 290.825ZM617.116 320.264C618.291 319.786 620.07 319.052 622.473 318.235C621.322 319.745 620.008 321.545 618.686 323.51C618.187 323.132 617.784 322.64 617.511 322.076C617.239 321.512 617.103 320.891 617.116 320.264ZM700.234 323.627C698.676 321.971 697.417 320.491 696.381 319.166C698.313 319.675 700.281 320.222 702.284 320.808C703.282 320.957 704.3 320.889 705.27 320.609C705.359 322.38 705.359 324.908 705.359 324.908L702.552 326.851C701.912 325.687 701.134 324.604 700.234 323.627ZM708.186 314.739C708.157 314.765 708.124 314.795 708.093 314.823C707.956 313.809 707.727 312.811 707.409 311.839C705.73 306.542 704.832 297.144 704.355 289.125L709.203 305.432C709.203 305.432 709.459 313.632 708.186 314.739Z" fill="#D0CDE1"/>
<path d="M608.644 247.384C608.644 247.384 582.354 202.197 581.532 197.267C580.71 192.338 567.565 183.301 567.565 183.301C563.074 178.809 555.705 177.388 547.95 177.462C550.87 175.046 540.443 173.422 539.631 171.798C538.81 170.155 536.345 170.155 533.059 167.691C529.773 165.226 521.57 167.28 521.569 167.28C520.335 164.685 519.477 161.928 519.02 159.092C522.522 154.949 524.439 149.699 524.432 144.276C524.432 144.217 524.428 144.159 524.428 144.1C524.637 144.425 524.846 144.753 525.055 145.09C526.594 135.871 529.311 128.208 524.133 119.798C520.463 113.838 514.717 109.446 508.003 107.467L503.071 111.413L504.989 106.811C503.376 106.565 501.744 106.47 500.114 106.529L495.677 112.234L497.514 106.724C493.663 107.203 489.954 108.474 486.619 110.458C483.285 112.441 480.397 115.094 478.139 118.249C472.491 126.392 472.869 137.712 478.424 145.919C478.443 145.861 478.457 145.805 478.476 145.748C478.721 149.587 479.926 153.304 481.979 156.557C484.032 159.81 486.869 162.496 490.23 164.369L491.625 175.531C490.369 176.697 488.758 177.408 487.051 177.55C484.586 177.55 482.121 184.122 482.121 184.122C482.121 184.122 480.724 184.827 479.219 188.155C475.34 190.795 463.51 199.089 459.12 204.885C456.524 206.163 453.735 209.005 454.187 215.342C455.009 226.844 454.187 280.247 454.187 280.247C454.187 280.247 446.793 325.434 449.258 328.72C451.723 332.006 448.436 342.687 448.436 342.687L450.901 343.234V345.973C450.901 345.973 443.488 380.339 455.009 378.836C473.905 376.371 459.938 348.438 459.938 348.438V345.243L463.225 345.973C463.225 345.973 464.868 334.471 468.154 333.649C469.297 333.364 470.639 330.293 471.903 326.411C472.64 332.466 473.084 336.114 473.084 336.114L478.224 334.972L479.656 340.222C480.009 340.42 480.379 340.587 480.76 340.722L479.656 346.795C479.656 346.795 478.835 353.367 479.656 357.475C480.071 359.547 495.321 403.829 510.338 447.219L510.055 457.707C510.055 457.707 502.661 465.923 504.304 471.674C505.947 477.425 500.196 525.077 500.196 525.077L495.266 548.903L496.507 549.284L495.368 553.459C494.387 553.954 493.515 554.64 492.802 555.475C486.229 562.869 478.013 584.23 478.013 584.23C478.013 584.23 463.225 606.413 486.229 605.591C509.233 604.77 510.876 596.554 510.876 596.554C510.876 596.554 514.163 575.193 514.163 574.371C514.163 573.55 512.52 565.105 512.52 565.105L511.881 564.401L512.327 554.152L516.627 555.475C516.627 555.475 520.735 534.114 524.022 531.65C525.17 530.788 528.226 521.192 531.715 508.867C535.281 519.135 538.734 554.64 539.855 557.863C539.458 558.405 539.108 558.981 538.81 559.583C535.117 566.67 531.002 573.529 526.486 580.123C526.486 580.123 500.196 595.733 526.486 599.84C526.486 599.84 541.275 600.662 548.669 595.733C556.063 590.803 575.781 583.409 575.781 581.766C575.781 580.123 570.852 555.968 565.922 558.597L562.62 551.002L565.922 549.724L545.122 456.36C545.614 454.37 545.975 452.35 546.204 450.313C546.204 446.011 556.842 362.236 559.549 340.987C571.464 344.363 582.354 319.683 582.354 319.683L585.054 314.821L588.926 317.218C588.926 317.218 592.213 309.002 597.142 308.18C602.071 307.359 611.109 263.815 611.109 258.064C611.033 254.372 610.194 250.735 608.644 247.384ZM570.365 311.753C569.557 310.469 568.618 309.272 567.565 308.18C569.713 302.586 571.363 296.812 572.495 290.927C574.138 281.89 570.03 252.313 570.03 252.313L569.958 250.304C573.99 255.598 579.067 262.655 579.067 264.637C579.067 265.593 579.29 266.537 579.718 267.392C580.146 268.248 580.767 268.992 581.532 269.566L576.602 286.819C576.602 286.819 573.316 295.035 572.495 299.143C572.002 301.578 571.727 304.053 571.673 306.537L572.838 307.258L570.365 311.753Z" fill="#D0CDE1"/>
<path d="M232.522 262.59L236.906 261.604L218.832 210.666L179.807 196.288C179.807 196.288 179.657 196.454 179.381 196.74C176.053 193.518 174.64 188.844 174.05 185.164C177.188 183.896 180.008 181.952 182.308 179.469C184.608 176.985 186.331 174.025 187.355 170.799C188.379 167.573 188.679 164.161 188.232 160.806C187.785 157.451 186.604 154.236 184.771 151.39C187.987 150.618 189.135 147.701 190.214 144.222C189.546 144.025 188.864 143.877 188.175 143.778C188.681 142.644 189.186 141.51 189.692 140.376C188.803 140.296 187.914 140.216 187.026 140.137C187.253 139.077 187.48 138.017 187.707 136.956C186.574 137.739 185.441 138.521 184.307 139.304C184.692 138.191 184.788 136.998 184.585 135.838C184.383 134.678 183.889 133.589 183.149 132.672C181.644 130.853 179.681 129.469 177.462 128.662C173.123 126.955 168.398 126.477 163.805 127.28C159.212 128.082 154.929 130.135 151.426 133.213L151.18 132.255C144.244 137.587 139.706 145.452 138.56 154.126C137.472 162.699 141.59 171.429 146.944 178.214C146.899 177.918 146.85 177.622 146.801 177.327C147.032 177.646 147.271 177.959 147.518 178.265L148.176 203.272L146.528 204.684C146.525 204.686 118.875 217.195 117.797 232.137L117.794 232.147C116.135 239.421 115.313 277.214 115.313 277.214H117.588L115.313 292.002L100.525 349.513C100.525 349.513 81.6282 374.16 98.06 379.089C108.27 382.153 111.184 370.306 111.927 360.896C112.518 363.229 114.287 364.805 117.778 365.123C118.052 365.148 118.346 365.168 118.629 365.191C110.86 385.269 116.134 450.567 116.134 450.567C112.027 458.782 160.5 515.471 160.5 515.471L163.418 513.915L164.05 515.178C162.426 515.333 161.321 515.471 161.321 515.471V540.94C161.321 540.94 153.927 566.409 163.786 571.339C166.337 572.614 168.998 571.686 171.541 569.614C171.055 577.474 170.359 589.203 170.359 591.878C170.359 595.986 181.039 603.38 181.039 603.38C181.039 603.38 183.504 612.417 203.222 612.417C222.94 612.417 208.151 588.592 208.151 588.592L197.471 564.766C197.471 564.766 196.672 565.157 194.253 563.188L195.119 553.66L199.935 554.085L206.508 457.961C206.508 457.961 212.259 372.517 213.081 359.372C213.273 355.157 213.174 350.934 212.784 346.734L236.906 296.932L232.522 262.59ZM214.724 294.467L212.259 303.056V284.06L214.724 294.467ZM112.156 355.394C112.176 352.383 112.027 350.334 112.027 350.334L128.088 318.21L127.637 328.152C127.637 328.152 114.773 344.423 112.156 355.394ZM149.819 448.102L165.429 393.056L174.467 459.604L173.819 483.797C172.718 481.574 171.834 479.25 171.18 476.857C168.715 466.998 149.819 448.102 149.819 448.102Z" fill="#D0CDE1"/>
<path d="M372.149 578.861C364.451 575.691 349.508 568.899 347.697 565.277C345.886 561.654 336.829 533.579 336.829 533.579L334.497 533.749C334.196 520.995 332.912 471.566 330.943 465.657C330.943 465.657 340.452 387.32 321.433 356.076L318.007 342.232C319.131 336.682 318.987 323.832 318.264 321.662C317.358 318.945 328.679 310.341 325.509 304.907C322.339 299.473 313.736 280.908 313.736 280.908C313.736 280.908 314.641 269.135 302.415 258.267C302.415 258.267 298.842 238.04 282.743 237.739C280.566 233.941 277.52 227.901 278.416 225.212C279.376 222.332 283.046 213.356 285.118 208.332C286.219 207.834 287.276 207.246 288.279 206.573C301.084 200.836 310.11 187.044 310.11 170.934C310.11 153.687 299.77 139.092 285.52 134.197C286.155 132.524 286.414 130.733 286.281 128.948C286.147 127.164 285.623 125.431 284.745 123.871C283.868 122.312 282.659 120.964 281.204 119.923C279.748 118.882 278.082 118.174 276.323 117.848C274.564 117.521 272.754 117.585 271.022 118.035C269.291 118.485 267.679 119.31 266.301 120.451C264.922 121.592 263.812 123.022 263.047 124.64C262.282 126.257 261.882 128.023 261.874 129.812C261.091 127.955 260.779 125.932 260.968 123.925C261.156 121.918 261.839 119.988 262.954 118.309C264.07 116.63 265.584 115.253 267.362 114.302C269.139 113.35 271.124 112.854 273.14 112.856C273.934 112.858 274.725 112.936 275.504 113.09C272.819 111.813 269.761 111.559 266.903 112.375C264.045 113.192 261.582 115.022 259.977 117.524C258.372 120.026 257.734 123.028 258.183 125.966C258.632 128.905 260.137 131.579 262.417 133.487C262.557 133.934 262.724 134.373 262.916 134.8C249.507 140.211 239.942 154.346 239.942 170.934C239.942 186.32 248.174 199.592 260.068 205.752C260.004 210.757 258.763 219.195 251.861 224.338C248.295 222.709 243.347 220.92 240.172 221.732C238.53 220.452 236.053 220.029 232.681 223.4C225.889 230.193 220.003 247.853 220.003 258.72C220.003 269.588 221.361 332.529 221.361 332.529C221.361 332.529 214.116 335.246 219.097 339.321C220.126 340.178 221.417 340.658 222.755 340.681L227.701 377.358C227.701 377.358 224.531 412.678 236.757 413.13C237.716 413.183 238.668 412.949 239.494 412.459L230.417 453.431C230.417 453.431 209.588 467.016 193.287 493.732C184.89 507.492 180.704 515.958 178.613 520.941L175.627 519.089L165.212 539.013C165.212 539.013 142.118 553.051 147.099 563.465C152.08 573.88 156.608 576.597 156.608 576.597L159.778 575.239L165.665 586.106C165.665 586.106 181.06 608.294 205.965 596.974C207.134 595.403 207.765 593.498 207.765 591.54C207.765 589.582 207.134 587.677 205.965 586.106C201.89 580.22 191.475 567.541 191.475 567.541L198.267 533.127L196.862 532.255L239.927 480.147C239.927 480.147 252.605 472.449 257.134 465.657C261.662 458.865 289.736 388.678 289.736 388.678L305.585 462.035C305.585 462.035 304.679 488.751 308.755 505.958C310.976 515.61 312.425 525.424 313.087 535.306L311.924 535.391L314.641 555.768C314.641 555.768 302.868 584.748 311.019 587.012C316.818 588.51 322.721 589.57 328.679 590.182L329.584 587.012C329.584 587.012 364.451 606.03 377.13 591.993C377.13 591.993 379.847 582.031 372.149 578.861ZM248.077 356.528C249.436 357.887 248.983 364.226 248.983 364.226L246.266 381.886L243.552 394.135C243.177 388.348 242.42 382.592 241.285 376.905L240.031 343.062C240.278 343.218 240.548 343.331 240.832 343.397C241.738 343.397 241.285 335.699 241.285 335.699C241.285 335.699 241.813 334.324 242.473 332.154C244.233 337.424 246.382 340.863 248.983 341.585L249.436 347.472C249.436 347.472 243.549 350.189 248.983 350.189C249.298 350.177 249.611 350.131 249.916 350.05L249.436 352.453C249.436 352.453 246.719 355.17 248.077 356.528Z" fill="#D0CDE1"/>
<path d="M364.409 599.955C565.441 599.955 728.409 597.269 728.409 593.955C728.409 590.642 565.441 587.955 364.409 587.955C163.377 587.955 0.408905 590.642 0.408905 593.955C0.408905 597.269 163.377 599.955 364.409 599.955Z" fill="#3F3D56"/>
<path d="M491.807 624.955C712.94 624.955 892.204 618.016 892.204 609.455C892.204 600.895 712.94 593.955 491.807 593.955C270.673 593.955 91.409 600.895 91.409 609.455C91.409 618.016 270.673 624.955 491.807 624.955Z" fill="#3F3D56"/>
<path d="M417.909 647.955C526.433 647.955 614.409 641.016 614.409 632.455C614.409 623.895 526.433 616.955 417.909 616.955C309.385 616.955 221.409 623.895 221.409 632.455C221.409 641.016 309.385 647.955 417.909 647.955Z" fill="#3F3D56"/>
<path d="M243.909 651.955C266.829 651.955 285.409 648.374 285.409 643.955C285.409 639.537 266.829 635.955 243.909 635.955C220.989 635.955 202.409 639.537 202.409 643.955C202.409 648.374 220.989 651.955 243.909 651.955Z" fill="#3F3D56"/>
<path d="M448.909 553.455L452.909 581.455L472.909 579.455L470.909 550.455L448.909 553.455Z" fill="#FFB8B8"/>
<path d="M353.909 553.455L349.909 581.455L329.909 579.455L331.909 550.455L353.909 553.455Z" fill="#FFB8B8"/>
<path d="M324.909 263.455C324.909 263.455 306.909 284.455 310.909 317.455C314.909 350.455 321.909 425.455 321.909 425.455L326.909 558.455L358.909 556.455L363.909 443.455L379.909 352.455L422.909 458.455C422.909 458.455 443.909 557.455 444.909 557.455C445.909 557.455 474.909 554.455 474.909 554.455L460.909 437.455C460.909 437.455 438.909 267.455 425.909 264.455C412.909 261.455 324.909 263.455 324.909 263.455Z" fill="#2F2E41"/>
<path d="M474.909 575.455C474.909 575.455 456.909 563.455 449.909 577.455C442.909 591.455 448.909 601.455 448.909 601.455C448.909 601.455 454.909 605.455 451.909 609.455C448.909 613.455 447.909 639.455 473.909 635.455C499.909 631.455 486.909 604.455 486.909 604.455L474.909 575.455Z" fill="#2F2E41"/>
<path d="M327.909 575.455C327.909 575.455 345.909 563.455 352.909 577.455C359.909 591.455 353.909 601.455 353.909 601.455C353.909 601.455 347.909 605.455 350.909 609.455C353.909 613.455 354.909 639.455 328.909 635.455C302.909 631.455 315.909 604.455 315.909 604.455L327.909 575.455Z" fill="#2F2E41"/>
<path d="M349.409 68.9553C349.409 68.9553 358.409 93.9553 351.409 107.955C344.409 121.955 362.409 137.955 362.409 137.955C362.409 137.955 409.409 113.955 403.409 101.955C397.409 89.9553 387.409 73.9553 389.409 63.9553L349.409 68.9553Z" fill="#FFB8B8"/>
<path d="M366.909 78.4553C384.582 78.4553 398.909 64.1284 398.909 46.4553C398.909 28.7822 384.582 14.4553 366.909 14.4553C349.236 14.4553 334.909 28.7822 334.909 46.4553C334.909 64.1284 349.236 78.4553 366.909 78.4553Z" fill="#FFB8B8"/>
<path d="M343.909 106.455C343.909 106.455 376.017 133.174 399.963 95.3145L424.909 109.455L437.909 261.455C437.909 261.455 364.909 303.455 329.909 267.455L334.909 126.455L343.909 106.455Z" fill="#D0CDE1"/>
<path d="M353.992 91.488L308.909 121.455L324.909 195.455L303.909 310.455L337.909 259.455L353.992 91.488Z" fill="#575A89"/>
<path d="M393.836 83.147L404.909 90.4554L449.909 106.455L442.909 230.455L461.909 310.455L434.909 324.455C434.909 324.455 429.909 286.455 398.909 267.455C367.909 248.455 386.764 88.8385 393.836 83.147Z" fill="#575A89"/>
<path d="M318.909 277.455L331.909 286.455C331.909 286.455 315.409 303.955 312.409 300.955C311.541 300.122 310.867 299.107 310.435 297.984C310.003 296.861 309.823 295.656 309.909 294.455L306.909 287.455L318.909 277.455Z" fill="#FFB8B8"/>
<path d="M405.329 275.51L400.909 282.455C400.909 282.455 387.909 288.455 390.909 292.455C393.909 296.455 418.909 305.455 423.909 296.455L428.909 287.455L405.329 275.51Z" fill="#FFB8B8"/>
<path d="M314.909 120.455L307.909 121.455L296.409 195.955C296.409 195.955 291.909 209.455 296.909 241.455C301.909 273.455 306.86 294.293 306.86 294.293L328.909 278.455L318.909 252.455L331.909 157.455L314.909 120.455Z" fill="#575A89"/>
<path d="M433.909 104.455L449.909 106.455C449.909 106.455 467.909 125.455 470.909 145.455C473.909 165.455 472.909 222.455 472.909 222.455L426.909 295.455L401.909 277.455L436.909 215.455L419.909 141.455L433.909 104.455Z" fill="#575A89"/>
<path d="M397.424 17.5132C392.585 9.65528 385.011 3.86484 376.159 1.25635L369.657 6.45765L372.185 0.390916C370.059 0.0666324 367.908 -0.0577103 365.759 0.0195169L359.909 7.54077L362.33 0.277146C357.254 0.907955 352.364 2.58368 347.968 5.19866C343.572 7.81363 339.765 11.3111 336.788 15.4706C329.342 26.2062 328.086 41.1359 335.409 51.9555C337.419 45.7779 339.859 39.9812 341.869 33.8036C343.449 34.0189 345.05 34.0267 346.632 33.8268L349.078 28.1201L349.761 33.5854C357.342 32.9249 368.585 31.475 375.772 30.1465L375.073 25.9539L379.254 29.4379C381.456 28.931 382.763 28.4714 382.655 28.1201C388 36.7365 393.295 42.24 398.64 50.8564C400.669 38.7027 404.251 28.6002 397.424 17.5132Z" fill="#2F2E41"/>
<path d="M395.652 49.7827C396.849 49.7827 397.819 47.8429 397.819 45.4502C397.819 43.0574 396.849 41.1177 395.652 41.1177C394.456 41.1177 393.486 43.0574 393.486 45.4502C393.486 47.8429 394.456 49.7827 395.652 49.7827Z" fill="#FFB8B8"/>
<path d="M942.194 51.1871C942.223 51.0959 942.253 51.0036 942.282 50.9121C942.27 50.9522 942.254 50.9908 942.242 51.031L942.194 51.1871Z" fill="#2F2E41"/>
</svg>
