<svg width="691" height="572" viewBox="0 0 691 572" fill="none" xmlns="http://www.w3.org/2000/svg">
<path d="M565.634 293.923C578.063 316.972 604.44 326.867 604.44 326.867C604.44 326.867 610.667 299.391 598.239 276.342C585.81 253.293 559.433 243.399 559.433 243.399C559.433 243.399 553.206 270.874 565.634 293.923Z" fill="#2F2E41"/>
<path d="M574.177 286.34C596.615 299.84 605.257 326.654 605.257 326.654C605.257 326.654 577.519 331.581 555.08 318.081C532.642 304.581 524 277.767 524 277.767C524 277.767 551.738 272.84 574.177 286.34Z" fill="#6C63FF"/>
<g clip-path="url(#clip0_0_1)">
<path d="M690 36H1C0.734784 36 0.480429 35.8946 0.292892 35.7071C0.105356 35.5196 0 35.2652 0 35C0 34.7348 0.105356 34.4804 0.292892 34.2929C0.480429 34.1054 0.734784 34 1 34H690C690.265 34 690.52 34.1054 690.707 34.2929C690.895 34.4804 691 34.7348 691 35C691 35.2652 690.895 35.5196 690.707 35.7071C690.52 35.8946 690.265 36 690 36Z" fill="#E4E4E4"/>
<path d="M23.5078 22C29.5829 22 34.5078 17.0751 34.5078 11C34.5078 4.92487 29.5829 0 23.5078 0C17.4327 0 12.5078 4.92487 12.5078 11C12.5078 17.0751 17.4327 22 23.5078 22Z" fill="#E4E4E4"/>
<path d="M61.5078 22C67.5829 22 72.5078 17.0751 72.5078 11C72.5078 4.92487 67.5829 0 61.5078 0C55.4327 0 50.5078 4.92487 50.5078 11C50.5078 17.0751 55.4327 22 61.5078 22Z" fill="#E4E4E4"/>
<path d="M99.5078 22C105.583 22 110.508 17.0751 110.508 11C110.508 4.92487 105.583 0 99.5078 0C93.4327 0 88.5078 4.92487 88.5078 11C88.5078 17.0751 93.4327 22 99.5078 22Z" fill="#E4E4E4"/>
<path d="M432.814 137.815H258.187C256.005 137.815 253.913 136.948 252.371 135.406C250.828 133.863 249.961 131.771 249.961 129.589C249.961 127.408 250.828 125.316 252.371 123.773C253.913 122.231 256.005 121.364 258.187 121.364H432.814C434.995 121.364 437.087 122.231 438.63 123.773C440.172 125.316 441.039 127.408 441.039 129.589C441.039 131.771 440.172 133.863 438.63 135.406C437.087 136.948 434.995 137.815 432.814 137.815Z" fill="#E4E4E4"/>
<path d="M404.658 109.659H286.342C284.162 109.657 282.072 108.789 280.532 107.247C278.991 105.705 278.126 103.614 278.126 101.434C278.126 99.2543 278.991 97.1636 280.532 95.6213C282.072 94.079 284.162 93.2114 286.342 93.209H404.658C406.84 93.209 408.932 94.0756 410.474 95.6181C412.017 97.1606 412.883 99.2527 412.883 101.434C412.883 103.616 412.017 105.708 410.474 107.25C408.932 108.793 406.84 109.659 404.658 109.659Z" fill="#E4E4E4"/>
<path d="M123.732 370.229C164.049 370.229 196.732 337.545 196.732 297.229C196.732 256.912 164.049 224.229 123.732 224.229C83.4156 224.229 50.7324 256.912 50.7324 297.229C50.7324 337.545 83.4156 370.229 123.732 370.229Z" fill="#F0F0F0"/>
<path d="M595.732 370.229C636.049 370.229 668.732 337.545 668.732 297.229C668.732 256.912 636.049 224.229 595.732 224.229C555.416 224.229 522.732 256.912 522.732 297.229C522.732 337.545 555.416 370.229 595.732 370.229Z" fill="#F0F0F0"/>
<path d="M345.732 370.229C386.049 370.229 418.732 337.545 418.732 297.229C418.732 256.912 386.049 224.229 345.732 224.229C305.415 224.229 272.732 256.912 272.732 297.229C272.732 337.545 305.415 370.229 345.732 370.229Z" fill="#F0F0F0"/>
<path d="M631.212 328.867C625.459 325.836 619.455 323.309 613.266 321.315L612.476 312.585L580.47 309.137L576.403 320.295L564.917 324.605C564.506 324.761 564.114 324.965 563.751 325.212H563.738C561.858 325.372 560.047 325.998 558.469 327.034C557.399 327.717 556.448 328.57 555.653 329.559C557.207 330.737 558.821 331.83 560.484 332.874L560.558 332.91C561.031 333.202 561.517 333.493 562.002 333.773C562.877 334.295 563.775 334.792 564.674 335.266L565.245 335.557C566.556 336.237 567.892 336.881 569.264 337.476C569.543 337.597 569.847 337.719 570.126 337.84C570.15 337.852 570.162 337.852 570.186 337.864C570.83 338.132 571.473 338.386 572.129 338.629C574.282 339.452 576.479 340.157 578.71 340.742C584.401 342.259 590.267 343.026 596.157 343.025C598.307 343.025 600.432 342.927 602.532 342.721C607.332 342.278 612.07 341.322 616.665 339.868C616.677 339.868 616.69 339.856 616.702 339.856C619.605 338.931 622.441 337.807 625.189 336.492C625.201 336.48 625.225 336.48 625.238 336.468C625.857 336.177 626.452 335.861 627.059 335.557L627.35 335.412C627.836 335.157 628.322 334.902 628.808 334.635C630.022 333.967 631.212 333.263 632.388 332.51C632.716 332.316 633.033 332.109 633.36 331.891C633.822 331.587 634.283 331.271 634.732 330.943C633.603 330.215 632.426 329.523 631.212 328.867Z" fill="#6C63FF"/>
<path d="M595.217 303.617C607.948 303.617 618.268 293.297 618.268 280.567C618.268 267.836 607.948 257.516 595.217 257.516C582.487 257.516 572.166 267.836 572.166 280.567C572.166 293.297 582.487 303.617 595.217 303.617Z" fill="#A0616A"/>
<path d="M579.741 269.339C582.127 272.163 586.165 272.96 589.891 273.287C597.456 273.95 608.457 272.874 615.85 271.167C616.377 276.281 614.939 281.796 617.951 286.003C619.363 280.91 620.184 275.671 620.398 270.39C620.623 268.124 620.327 265.836 619.533 263.702C619.109 262.633 618.393 261.704 617.467 261.021C616.54 260.338 615.441 259.929 614.294 259.84C616.011 258.537 618.023 257.677 620.151 257.336L612.832 253.658L614.712 251.728L601.461 250.917L605.299 248.479C599.522 247.685 593.678 247.501 587.863 247.928C585.163 248.127 582.34 248.507 580.152 250.072C577.964 251.636 576.7 254.746 578.058 257.043C576.358 257.322 574.757 258.031 573.407 259.102C572.057 260.173 571.003 261.571 570.344 263.164C569.512 265.695 569.311 268.391 569.759 271.018C570.258 275.232 571.238 279.376 572.678 283.368L579.741 269.339Z" fill="#2F2E41"/>
<path d="M349.781 257.704C355.164 257.704 359.528 253.34 359.528 247.958C359.528 242.575 355.164 238.211 349.781 238.211C344.399 238.211 340.035 242.575 340.035 247.958C340.035 253.34 344.399 257.704 349.781 257.704Z" fill="#2F2E41"/>
<path d="M341.326 253.029C340.094 251.877 339.182 250.425 338.678 248.815C338.175 247.205 338.098 245.492 338.456 243.843C338.813 242.195 339.592 240.667 340.716 239.409C341.841 238.152 343.272 237.208 344.871 236.669C343.532 236.865 342.248 237.338 341.102 238.057C339.955 238.776 338.971 239.726 338.212 240.846C337.453 241.967 336.936 243.233 336.693 244.564C336.451 245.896 336.488 247.263 336.803 248.579C337.118 249.895 337.704 251.131 338.523 252.208C339.342 253.286 340.377 254.18 341.561 254.836C342.745 255.491 344.052 255.893 345.4 256.015C346.748 256.137 348.106 255.977 349.388 255.546C347.942 255.759 346.465 255.644 345.069 255.208C343.673 254.772 342.394 254.027 341.326 253.028L341.326 253.029Z" fill="#2F2E41"/>
<path d="M349.978 310.408C365.79 310.408 378.609 297.589 378.609 281.777C378.609 265.965 365.79 253.146 349.978 253.146C334.166 253.146 321.348 265.965 321.348 281.777C321.348 297.589 334.166 310.408 349.978 310.408Z" fill="#2F2E41"/>
<path d="M324.508 266.013C329.441 260.465 336.337 257.051 343.74 256.49C351.143 255.93 358.474 258.268 364.186 263.011C363.953 262.788 363.719 262.564 363.478 262.348C357.822 257.281 350.385 254.669 342.803 255.085C335.221 255.502 328.115 258.913 323.049 264.569C317.982 270.224 315.37 277.661 315.786 285.243C316.203 292.825 319.614 299.931 325.27 304.997C325.324 305.046 325.379 305.095 325.433 305.143C325.676 305.359 325.926 305.563 326.175 305.77C320.796 300.653 317.615 293.646 317.305 286.228C316.994 278.811 319.577 271.562 324.509 266.013H324.508Z" fill="#2F2E41"/>
<path d="M349.735 310.165C359.919 310.165 368.175 301.909 368.175 291.725C368.175 281.541 359.919 273.286 349.735 273.286C339.552 273.286 331.296 281.541 331.296 291.725C331.296 301.909 339.552 310.165 349.735 310.165Z" fill="#A0616A"/>
<path d="M382.732 339.769V345.956C381.6 346.68 380.456 347.357 379.288 347.999C378.822 348.256 378.355 348.501 377.888 348.746L377.607 348.886C377.024 349.178 376.451 349.482 375.856 349.762C375.845 349.774 375.821 349.774 375.81 349.785C373.167 351.049 370.441 352.13 367.65 353.019C367.638 353.019 367.627 353.03 367.615 353.03C363.197 354.428 358.641 355.348 354.027 355.774C352.007 355.972 349.964 356.066 347.898 356.066C342.235 356.067 336.596 355.329 331.124 353.871C328.332 353.137 325.594 352.213 322.929 351.104C322.905 351.093 322.893 351.093 322.87 351.081C322.602 350.964 322.31 350.847 322.041 350.731C320.722 350.159 319.438 349.54 318.177 348.886L317.629 348.606C316.286 347.894 314.967 347.147 313.671 346.342L313.601 346.306C311.606 345.063 309.681 343.711 307.835 342.256C306.889 341.532 305.979 340.773 305.091 339.979C304.624 339.582 304.158 339.162 303.714 338.754C302.009 337.179 300.391 335.511 298.869 333.757C299.071 332.541 299.368 331.343 299.757 330.174L299.768 330.162C299.838 329.963 299.92 329.768 300.013 329.578C300.078 329.411 300.152 329.247 300.235 329.088C302.324 325.177 306.107 324.208 310.8 323.998C313.45 323.882 316.379 324.01 319.473 323.975C321.108 323.963 322.8 323.905 324.493 323.753C335.174 322.784 333.237 316.481 333.715 313.083C334.194 309.792 337.159 312.64 337.357 312.827L337.368 312.838C343.413 315.667 350.1 316.839 356.747 316.235C357.891 316.095 359.035 316.014 360.179 315.979C363.191 315.944 362.537 316.807 361.498 317.52C360.994 317.851 360.467 318.148 359.922 318.407C359.922 318.407 359.443 321.325 358.953 325.691C358.486 329.87 373.207 331.318 376.09 332.228H376.102C377.747 332.833 379.216 333.84 380.374 335.157C381.532 336.474 382.343 338.059 382.732 339.769V339.769Z" fill="#6C63FF"/>
<path d="M331.053 290.512C331.857 290.512 332.509 289.318 332.509 287.844C332.509 286.37 331.857 285.175 331.053 285.175C330.249 285.175 329.597 286.37 329.597 287.844C329.597 289.318 330.249 290.512 331.053 290.512Z" fill="#A0616A"/>
<path d="M368.419 290.512C369.223 290.512 369.875 289.318 369.875 287.844C369.875 286.37 369.223 285.175 368.419 285.175C367.615 285.175 366.963 286.37 366.963 287.844C366.963 289.318 367.615 290.512 368.419 290.512Z" fill="#A0616A"/>
<path d="M100.377 302.34L103.88 314.475L148.646 313.685L148.254 291.451C147.943 273.852 135.506 258.674 117.907 258.984C100.308 259.295 89.1184 274.173 89.4289 291.772L91.9855 314.685L99.2843 314.556L100.377 302.34Z" fill="#2F2E41"/>
<path d="M119.908 310.825C131 310.825 139.993 301.833 139.993 290.74C139.993 279.647 131 270.655 119.908 270.655C108.815 270.655 99.8223 279.647 99.8223 290.74C99.8223 301.833 108.815 310.825 119.908 310.825Z" fill="#FFB6B6"/>
<path d="M141.895 276.637C141.868 275.099 141.387 273.603 140.512 272.339C140.419 272.209 140.326 272.088 140.233 271.967C139.489 271.018 138.535 270.253 137.447 269.732C136.358 269.212 135.164 268.951 133.957 268.969L119.521 269.229L105.094 269.479C103.027 269.521 101.061 270.379 99.6254 271.867C98.19 273.354 97.4024 275.35 97.4348 277.417L100.87 284.333L102.847 288.307L103.172 288.121C115.659 281.103 120.765 281.01 137.29 287.536L137.624 287.666L138.934 284.315L141.904 276.711L141.895 276.637Z" fill="#2F2E41"/>
<path d="M159.887 322.062C155.579 317.764 141.004 319.472 141.004 319.472L102.532 321.895C93.9998 322.527 86.3128 329.359 83.5278 332.126C83.973 332.562 84.4284 332.989 84.8931 333.398C93.4425 340.996 104.189 345.676 115.576 346.757C126.963 347.839 138.399 345.267 148.226 339.414C152.348 336.954 157.622 334.004 160.927 330.56C162.237 329.204 163.284 329.231 164.445 327.746C163.576 325.411 161.978 323.418 159.887 322.062V322.062Z" fill="#6C63FF"/>
<path d="M123.732 571.228C164.049 571.228 196.732 538.545 196.732 498.229C196.732 457.912 164.049 425.229 123.732 425.229C83.4156 425.229 50.7324 457.912 50.7324 498.229C50.7324 538.545 83.4156 571.228 123.732 571.228Z" fill="#F0F0F0"/>
<path d="M595.732 571.228C636.049 571.228 668.732 538.545 668.732 498.229C668.732 457.912 636.049 425.229 595.732 425.229C555.416 425.229 522.732 457.912 522.732 498.229C522.732 538.545 555.416 571.228 595.732 571.228Z" fill="#F0F0F0"/>
<path d="M345.732 571.228C386.049 571.228 418.732 538.545 418.732 498.229C418.732 457.912 386.049 425.229 345.732 425.229C305.415 425.229 272.732 457.912 272.732 498.229C272.732 538.545 305.415 571.228 345.732 571.228Z" fill="#F0F0F0"/>
<path d="M122.537 508.7C133.683 508.7 142.719 499.664 142.719 488.518C142.719 477.372 133.683 468.337 122.537 468.337C111.391 468.337 102.356 477.372 102.356 488.518C102.356 499.664 111.391 508.7 122.537 508.7Z" fill="#FFB8B8"/>
<path d="M103.444 494.833C103.444 494.833 105.159 491.821 104.76 481.762C104.362 471.702 119.68 477.392 132.48 476.432C145.28 475.472 142.571 493.227 142.571 493.227C142.571 493.227 143.494 492.171 145.471 483.603C147.448 475.034 142.959 466.495 142.959 466.495C141.637 457.491 134.512 460.376 134.512 460.376C137.943 461.712 137.284 464.568 137.284 464.568C134.38 459.476 127.255 462.362 127.255 462.362C117.752 456.399 108.121 464.251 108.121 464.251C96.6407 466.857 103.373 475.986 103.373 475.986C91.8282 481.821 103.444 494.833 103.444 494.833Z" fill="#2F2E41"/>
<path d="M156.212 535.883C150.459 532.852 144.455 530.325 138.266 528.331L137.476 519.601L105.47 516.153L101.403 527.311L89.9167 531.622C89.5055 531.777 89.114 531.981 88.7505 532.229H88.7381C86.8576 532.388 85.0465 533.014 83.4691 534.05C82.3991 534.733 81.4477 535.586 80.6526 536.575C82.2066 537.753 83.8207 538.846 85.4843 539.89L85.5576 539.926C86.0312 540.218 86.5171 540.509 87.0021 540.789C87.8767 541.311 88.7752 541.808 89.6737 542.282L90.2444 542.573C91.5555 543.253 92.8913 543.897 94.2634 544.492C94.5425 544.613 94.8465 544.735 95.1256 544.856C95.1495 544.868 95.1618 544.868 95.1856 544.88C95.8297 545.148 96.4729 545.402 97.1284 545.645C99.2823 546.468 101.479 547.173 103.709 547.758C109.401 549.275 115.267 550.042 121.157 550.041C123.307 550.041 125.431 549.943 127.532 549.737C132.332 549.294 137.07 548.338 141.665 546.884C141.677 546.884 141.69 546.872 141.701 546.872C144.604 545.947 147.44 544.823 150.189 543.508C150.2 543.496 150.225 543.496 150.238 543.484C150.857 543.193 151.451 542.877 152.058 542.573L152.35 542.428C152.836 542.173 153.322 541.918 153.808 541.651C155.022 540.983 156.212 540.279 157.388 539.526C157.716 539.332 158.032 539.125 158.36 538.907C158.821 538.603 159.282 538.287 159.732 537.96C158.603 537.231 157.425 536.539 156.212 535.883Z" fill="#6C63FF"/>
<path d="M373.488 531.614L361.338 530.509L354.067 525.199C354.068 525.189 354.065 525.179 354.058 525.171L354.039 525.181L353.749 524.965L353.711 525.303L341.441 530.021L328.832 527.113L324.47 531.832L305.042 538.277C304.107 538.899 303.286 539.676 302.612 540.575L302.614 540.587C303.429 541.226 304.268 541.855 305.117 542.451C307.043 543.843 309.044 545.127 311.111 546.297C316.142 549.167 321.521 551.377 327.116 552.874C327.622 553.014 328.129 553.146 328.635 553.268C329.517 553.483 330.408 553.69 331.3 553.859C333.101 554.234 334.924 554.528 336.769 554.74C339.48 555.069 342.209 555.232 344.94 555.228C346.807 555.228 348.655 555.156 350.484 555.012C353.698 554.754 356.889 554.268 360.034 553.558C360.146 553.53 360.259 553.511 360.372 553.474C365.188 552.37 369.869 550.74 374.331 548.615C375.015 548.286 375.7 547.948 376.375 547.601C378.036 546.748 379.65 545.828 381.216 544.843C382.398 544.112 383.552 543.333 384.678 542.526C385.372 542.029 386.057 541.522 386.732 540.997L386.659 540.842C385.46 538.288 383.614 536.092 381.303 534.473C378.992 532.854 376.298 531.868 373.488 531.614Z" fill="#6C63FF"/>
<path d="M361.882 470.977C360.464 469.572 358.865 468.364 357.126 467.384C346.384 461.455 334.649 461.352 324.93 467.093C322.514 468.517 320.307 470.269 318.373 472.299C312.92 477.991 309.866 485.562 309.845 493.444V516.822H370.991V491.052C370.991 484.148 367.192 476.155 361.882 470.977Z" fill="#2F2E41"/>
<path d="M339.21 516.184C351.406 516.184 361.294 506.297 361.294 494.1C361.294 481.903 351.406 472.016 339.21 472.016C327.013 472.016 317.126 481.903 317.126 494.1C317.126 506.297 327.013 516.184 339.21 516.184Z" fill="#FFB8B8"/>
<path d="M361.863 474.054C361.818 473.584 361.651 473.134 361.38 472.747C361.109 472.361 360.742 472.051 360.315 471.849C346.497 465.395 332.482 465.564 318.682 472.356H318.429L318.344 472.703C315.624 493.66 316.008 494.12 316.177 494.307C316.443 494.61 316.773 494.851 317.144 495.011C317.483 495.161 317.851 495.238 318.222 495.236H349.724L349.799 494.88C350.165 493.004 350.634 491.15 351.206 489.326C352.462 491.157 353.617 493.055 354.668 495.011L354.799 495.236H360.925C361.041 495.236 361.157 495.227 361.272 495.208C361.905 495.132 362.488 494.828 362.914 494.354C363.082 494.176 363.476 493.745 361.863 474.054Z" fill="#2F2E41"/>
<path d="M612.245 528.779L611.45 519.947L579.029 516.455L574.924 527.755L563.285 532.116C562.863 532.272 562.461 532.478 562.088 532.729C559.763 532.94 557.554 533.837 555.742 535.307C556.007 535.527 556.272 535.737 556.537 535.947C556.592 536.002 556.656 536.048 556.711 536.093C557.452 536.669 558.211 537.236 558.979 537.776C559.18 537.922 559.381 538.068 559.591 538.205C561.277 539.4 563.023 540.508 564.821 541.524C566.54 542.503 568.304 543.405 570.115 544.231C573.44 545.75 576.887 546.989 580.419 547.933C580.912 548.071 581.406 548.199 581.9 548.317C582.759 548.528 583.628 548.729 584.496 548.893C586.252 549.259 588.028 549.546 589.827 549.753C592.469 550.073 595.128 550.232 597.79 550.228C599.61 550.228 601.411 550.158 603.194 550.018C606.326 549.766 609.436 549.292 612.501 548.601C612.611 548.573 612.721 548.555 612.83 548.519C617.525 547.442 622.087 545.854 626.435 543.783C627.102 543.463 627.77 543.133 628.428 542.795C630.046 541.963 631.619 541.067 633.146 540.107C633.694 539.769 634.233 539.421 634.773 539.056C626.48 533.479 614.439 529.483 612.245 528.779Z" fill="#6C63FF"/>
<path d="M593.972 510.861C606.866 510.861 617.319 500.409 617.319 487.515C617.319 474.621 606.866 464.169 593.972 464.169C581.079 464.169 570.626 474.621 570.626 487.515C570.626 500.409 581.079 510.861 593.972 510.861Z" fill="#A0616A"/>
<path d="M578.302 476.141C580.719 479.001 584.809 479.808 588.582 480.136C596.244 480.808 607.385 479.718 614.873 477.99C615.411 483.169 613.951 488.754 617.001 493.016C618.431 487.857 619.263 482.551 619.48 477.202C619.707 474.907 619.408 472.591 618.604 470.429C618.174 469.346 617.449 468.405 616.511 467.714C615.573 467.022 614.46 466.608 613.298 466.517C613.554 466.253 613.731 465.921 613.806 465.561C613.882 465.2 613.854 464.826 613.725 464.481C613.443 463.262 612.822 462.148 611.934 461.268C611.046 460.388 609.926 459.777 608.705 459.507L600.3 457.481C600.3 457.481 592.414 454.022 586.523 454.457C583.788 454.658 580.928 455.043 578.713 456.628C576.497 458.213 575.216 461.362 576.592 463.688C574.87 463.971 573.249 464.689 571.882 465.773C570.514 466.858 569.447 468.274 568.78 469.887C567.937 472.451 567.733 475.182 568.187 477.842C568.692 482.11 569.684 486.307 571.143 490.35L578.302 476.141Z" fill="#2F2E41"/>
<path d="M369.656 277.614C368.948 275.345 367.368 273.45 365.265 272.344C363.177 271.261 360.947 270.477 358.641 270.016C354.609 268.856 350.431 268.284 346.236 268.318C342.053 268.523 337.776 269.967 334.933 273.044C332.091 276.121 331.037 281.006 333.108 284.647L332.879 285.588C336.198 285.983 339.56 285.407 342.558 283.93C345.556 282.454 348.062 280.139 349.772 277.268C351.341 279.746 353.57 281.737 356.208 283.019C358.846 284.301 361.789 284.822 364.707 284.524C365.638 284.449 366.545 284.188 367.374 283.757C368.357 283.108 369.108 282.163 369.519 281.058C369.929 279.954 369.977 278.748 369.656 277.614V277.614Z" fill="#2F2E41"/>
<path d="M667.232 6.72852H640.232C639.702 6.72852 639.193 6.5178 638.818 6.14273C638.443 5.76766 638.232 5.25895 638.232 4.72852C638.232 4.19808 638.443 3.68937 638.818 3.3143C639.193 2.93923 639.702 2.72852 640.232 2.72852H667.232C667.763 2.72852 668.272 2.93923 668.647 3.3143C669.022 3.68937 669.232 4.19808 669.232 4.72852C669.232 5.25895 669.022 5.76766 668.647 6.14273C668.272 6.5178 667.763 6.72852 667.232 6.72852Z" fill="#E4E4E4"/>
<path d="M667.232 14.2285H640.232C639.702 14.2285 639.193 14.0178 638.818 13.6427C638.443 13.2677 638.232 12.7589 638.232 12.2285C638.232 11.6981 638.443 11.1894 638.818 10.8143C639.193 10.4392 639.702 10.2285 640.232 10.2285H667.232C667.763 10.2285 668.272 10.4392 668.647 10.8143C669.022 11.1894 669.232 11.6981 669.232 12.2285C669.232 12.7589 669.022 13.2677 668.647 13.6427C668.272 14.0178 667.763 14.2285 667.232 14.2285Z" fill="#E4E4E4"/>
<path d="M667.232 21.7285H640.232C639.702 21.7285 639.193 21.5178 638.818 21.1427C638.443 20.7677 638.232 20.2589 638.232 19.7285C638.232 19.1981 638.443 18.6894 638.818 18.3143C639.193 17.9392 639.702 17.7285 640.232 17.7285H667.232C667.763 17.7285 668.272 17.9392 668.647 18.3143C669.022 18.6894 669.232 19.1981 669.232 19.7285C669.232 20.2589 669.022 20.7677 668.647 21.1427C668.272 21.5178 667.763 21.7285 667.232 21.7285Z" fill="#E4E4E4"/>
</g>
<defs>
<clipPath id="clip0_0_1">
<rect width="691" height="571.228" fill="white"/>
</clipPath>
</defs>
</svg>
