<svg width="982" height="512" viewBox="0 0 982 512" fill="none" xmlns="http://www.w3.org/2000/svg">
<path d="M675.01 96.1228C693.743 96.1228 708.929 80.9337 708.929 62.1971C708.929 43.4605 693.743 28.2714 675.01 28.2714C656.277 28.2714 641.09 43.4605 641.09 62.1971C641.09 80.9337 656.277 96.1228 675.01 96.1228Z" fill="#2F2E41"/>
<path d="M785.004 497.859L770.196 497.858L763.15 440.729L785.007 440.73L785.004 497.859Z" fill="#FFB8B8"/>
<path d="M759.618 493.626H788.177V511.611H741.637C741.637 509.249 742.102 506.91 743.005 504.728C743.909 502.546 745.234 500.564 746.903 498.894C748.573 497.223 750.555 495.899 752.737 494.995C754.919 494.091 757.257 493.626 759.618 493.626V493.626Z" fill="#2F2E41"/>
<path d="M633.946 495.92L619.648 492.064L627.713 435.07L648.814 440.761L633.946 495.92Z" fill="#FFB8B8"/>
<path d="M610.537 485.224L638.111 492.66L633.43 510.025L588.494 497.907C589.736 493.301 592.755 489.378 596.889 486.999C601.023 484.621 605.932 483.982 610.537 485.224Z" fill="#2F2E41"/>
<path d="M662.007 233.522L617.912 483.441L640.525 487.964L711.755 311.551L764.895 486.834L792.03 483.441C792.03 483.441 779.593 232.391 740.021 210.905L662.007 233.522Z" fill="#2F2E41"/>
<path d="M592.077 322.926C593.666 322.134 595.063 321.004 596.169 319.614C597.275 318.225 598.062 316.609 598.477 314.882C598.891 313.155 598.921 311.359 598.566 309.618C598.211 307.878 597.478 306.237 596.42 304.811L620.739 269.144L598.312 268.796L578.657 302.719C576.379 304.656 574.89 307.361 574.473 310.322C574.056 313.283 574.739 316.294 576.393 318.784C578.048 321.275 580.558 323.072 583.448 323.835C586.339 324.599 589.409 324.275 592.077 322.926V322.926Z" fill="#FFB8B8"/>
<path d="M752.628 278.822C754.217 278.031 755.614 276.901 756.72 275.511C757.826 274.121 758.613 272.506 759.027 270.779C759.442 269.052 759.472 267.255 759.117 265.515C758.761 263.775 758.029 262.134 756.971 260.708L781.289 225.04L758.862 224.692L739.207 258.616C736.929 260.552 735.441 263.257 735.024 266.218C734.607 269.179 735.29 272.19 736.944 274.681C738.598 277.172 741.109 278.969 743.999 279.732C746.89 280.495 749.96 280.172 752.628 278.822V278.822Z" fill="#FFB8B8"/>
<path d="M675.873 102.84C692.258 102.84 705.54 89.5549 705.54 73.1673C705.54 56.7797 692.258 43.495 675.873 43.495C659.489 43.495 646.207 56.7797 646.207 73.1673C646.207 89.5549 659.489 102.84 675.873 102.84Z" fill="#FFB8B8"/>
<path d="M740.021 119.305C738.89 114.782 719.67 115.913 719.67 115.913C719.67 115.913 698.026 110.936 698.231 111.558C679.992 110.154 657.744 117.003 654.504 118.041C647.874 119.871 635.208 125.467 626.073 129.583C624.801 130.156 623.808 131.208 623.307 132.51C622.807 133.812 622.841 135.259 623.402 136.536L651.266 200.162L655.223 241.438L746.805 213.166C724.192 204.12 741.152 123.829 740.021 119.305Z" fill="#6C63FF"/>
<path d="M732.107 120.436L739.623 118.548L780.724 199.596L782.985 245.962L756.981 225.606V207.513L729.846 172.456L732.107 120.436Z" fill="#6C63FF"/>
<path d="M633.176 126.656L624.472 130.525C624.019 130.726 623.623 131.036 623.317 131.427C623.012 131.818 622.808 132.278 622.722 132.767L605.475 231.26L588.516 281.018L611.128 292.326L637.133 230.129L646.178 184.895L633.176 126.656Z" fill="#6C63FF"/>
<path d="M644.762 59.1795C650.783 57.202 657.135 60.3021 663.017 62.6621C668.814 64.9879 675.007 66.664 681.242 66.2976C687.477 65.9312 693.783 63.2975 697.553 58.3164C701.322 53.3353 701.986 45.8702 698.254 40.8605C695.798 37.5625 691.878 35.6809 687.953 34.4556C679.567 31.8376 670.182 31.7472 662.21 35.4406C654.239 39.134 647.988 46.9365 647.331 55.6988" fill="#2F2E41"/>
<path d="M674.106 35.5442C672.084 21.849 679.584 7.62972 689.821 2.52885C700.057 -2.57203 712.067 0.437024 721.289 8.03286C730.511 15.6287 737.233 27.3012 742.237 39.7092C747.241 52.1172 750.705 65.4071 754.782 78.3476C758.403 89.8405 762.653 101.34 769.529 110.13C776.406 118.92 786.406 124.64 795.988 122.225C788.116 132.811 773.634 130.978 764.649 121.923C755.665 112.868 750.994 98.7149 747.318 84.9383C743.641 71.1617 740.442 56.747 733.33 45.3306C720.678 25.0206 695.849 18.9188 678.117 31.7618" fill="#2F2E41"/>
<path d="M982 509.584H0V512H982V509.584Z" fill="#3F3D56"/>
<rect x="77" y="153" width="448" height="121" fill="white"/>
<path d="M494.352 256.181H107.478C107.289 256.181 107.101 256.144 106.926 256.072C106.751 256 106.592 255.894 106.458 255.761C106.324 255.627 106.218 255.468 106.146 255.294C106.073 255.119 106.036 254.931 106.036 254.742C106.036 254.553 106.073 254.366 106.146 254.191C106.218 254.016 106.324 253.857 106.458 253.724C106.592 253.59 106.751 253.484 106.926 253.412C107.101 253.34 107.289 253.303 107.478 253.304H494.352C494.541 253.303 494.729 253.34 494.904 253.412C495.079 253.484 495.238 253.59 495.372 253.724C495.506 253.857 495.612 254.016 495.685 254.191C495.757 254.366 495.795 254.553 495.795 254.742C495.795 254.931 495.757 255.119 495.685 255.294C495.612 255.468 495.506 255.627 495.372 255.761C495.238 255.894 495.079 256 494.904 256.072C494.729 256.144 494.541 256.181 494.352 256.181V256.181Z" fill="#808080"/>
<path d="M148.466 208.711H116.826C116.445 208.712 116.081 208.864 115.812 209.134C115.543 209.404 115.392 209.769 115.392 210.15C115.392 210.53 115.543 210.896 115.812 211.165C116.081 211.435 116.445 211.587 116.826 211.588H131.208V237.024C131.183 238.868 131.861 240.651 133.105 242.012C134.349 243.373 136.065 244.208 137.903 244.347C137.993 244.351 138.086 244.353 138.18 244.353C139.311 244.332 140.419 244.035 141.409 243.49C142.4 242.944 143.242 242.165 143.864 241.22C144.092 240.915 144.19 240.532 144.136 240.154C144.081 239.777 143.88 239.437 143.575 239.208C143.27 238.98 142.887 238.882 142.51 238.935C142.133 238.989 141.792 239.19 141.563 239.495C141.197 240.104 140.677 240.608 140.057 240.955C139.436 241.301 138.735 241.48 138.024 241.473C136.925 241.371 135.906 240.854 135.174 240.028C134.443 239.201 134.053 238.127 134.085 237.024V211.588H148.466C148.656 211.589 148.843 211.552 149.018 211.48C149.193 211.408 149.352 211.302 149.486 211.168C149.62 211.035 149.726 210.876 149.799 210.701C149.871 210.526 149.909 210.339 149.909 210.15C149.909 209.96 149.871 209.773 149.799 209.598C149.726 209.423 149.62 209.265 149.486 209.131C149.352 208.997 149.193 208.891 149.018 208.819C148.843 208.747 148.656 208.711 148.466 208.711L148.466 208.711Z" fill="#6C63FF"/>
<path d="M256.331 333.858C262.685 333.858 267.836 328.706 267.836 322.35C267.836 315.995 262.685 310.843 256.331 310.843C249.976 310.843 244.825 315.995 244.825 322.35C244.825 328.706 249.976 333.858 256.331 333.858Z" fill="white"/>
<path d="M300.915 333.858C307.269 333.858 312.42 328.706 312.42 322.35C312.42 315.995 307.269 310.843 300.915 310.843C294.56 310.843 289.409 315.995 289.409 322.35C289.409 328.706 294.56 333.858 300.915 333.858Z" fill="#6C63FF"/>
<path d="M345.499 333.858C351.853 333.858 357.004 328.706 357.004 322.35C357.004 315.995 351.853 310.843 345.499 310.843C339.144 310.843 333.993 315.995 333.993 322.35C333.993 328.706 339.144 333.858 345.499 333.858Z" fill="white"/>
<path d="M155.182 243.28C155.651 243.263 156.096 243.065 156.423 242.727C156.749 242.389 156.932 241.937 156.932 241.467C156.932 240.997 156.749 240.546 156.423 240.208C156.096 239.87 155.651 239.672 155.182 239.655C154.712 239.672 154.267 239.87 153.941 240.208C153.614 240.546 153.432 240.997 153.432 241.467C153.432 241.937 153.614 242.389 153.941 242.727C154.267 243.065 154.712 243.263 155.182 243.28V243.28Z" fill="#3F3D56"/>
<path d="M166.687 243.28C167.157 243.263 167.602 243.065 167.928 242.727C168.255 242.389 168.437 241.937 168.437 241.467C168.437 240.997 168.255 240.546 167.928 240.208C167.602 239.87 167.157 239.672 166.687 239.655C166.217 239.672 165.772 239.87 165.446 240.208C165.119 240.546 164.937 240.997 164.937 241.467C164.937 241.937 165.119 242.389 165.446 242.727C165.772 243.065 166.217 243.263 166.687 243.28V243.28Z" fill="#3F3D56"/>
<path d="M178.193 243.28C178.662 243.263 179.107 243.065 179.434 242.727C179.76 242.389 179.943 241.937 179.943 241.467C179.943 240.997 179.76 240.546 179.434 240.208C179.107 239.87 178.662 239.672 178.193 239.655C177.723 239.672 177.278 239.87 176.951 240.208C176.625 240.546 176.442 240.997 176.442 241.467C176.442 241.937 176.625 242.389 176.951 242.727C177.278 243.065 177.723 243.263 178.193 243.28V243.28Z" fill="#3F3D56"/>
<path d="M515.206 277.758H86.6239C83.1922 277.754 79.9021 276.389 77.4755 273.962C75.0488 271.535 73.6839 268.244 73.6802 264.811V162.68C73.6839 159.248 75.0488 155.957 77.4755 153.53C79.9021 151.103 83.1922 149.738 86.6239 149.734H515.206C518.637 149.738 521.928 151.103 524.354 153.53C526.781 155.957 528.146 159.248 528.15 162.68V264.811C528.146 268.244 526.781 271.535 524.354 273.962C521.928 276.389 518.637 277.754 515.206 277.758V277.758ZM86.6239 152.611C83.9549 152.614 81.3961 153.676 79.5088 155.564C77.6215 157.451 76.5598 160.01 76.5566 162.68V264.811C76.5598 267.481 77.6215 270.04 79.5088 271.928C81.3961 273.816 83.9549 274.878 86.6239 274.881H515.206C517.875 274.878 520.434 273.816 522.321 271.928C524.208 270.04 525.27 267.481 525.273 264.811V162.68C525.27 160.01 524.208 157.451 522.321 155.564C520.434 153.676 517.875 152.614 515.206 152.611H86.6239Z" fill="#3F3D56"/>
</svg>
