<svg width="667" height="672" viewBox="0 0 667 672" fill="none" xmlns="http://www.w3.org/2000/svg">
<path d="M435.621 648.671L423.265 651.481L406.541 605.159L424.778 601.01L435.621 648.671Z" fill="#FFB6B6"/>
<path d="M438.99 661.461L400.993 670.107L400.883 669.626C399.991 665.704 400.693 661.588 402.836 658.183C404.978 654.778 408.385 652.364 412.307 651.471L412.308 651.471L418.05 644.626L432.198 646.945L435.515 646.191L438.99 661.461Z" fill="#2F2E41"/>
<path d="M634.947 422.88L641.739 433.577L603.711 464.871L593.685 449.082L634.947 422.88Z" fill="#FFB6B6"/>
<path d="M645.866 415.416L666.757 448.311L666.341 448.575C662.945 450.732 658.832 451.451 654.906 450.575C650.98 449.699 647.563 447.299 645.406 443.903L645.405 443.903L637.031 440.789L634.47 426.683L632.646 423.811L645.866 415.416Z" fill="#2F2E41"/>
<path d="M241.075 308.512L238.023 290.823L284.42 269.872L294.44 252.132C294.117 250.575 294.23 248.959 294.767 247.463C295.304 245.966 296.244 244.647 297.484 243.652C298.724 242.656 300.214 242.022 301.791 241.821C303.369 241.619 304.971 241.857 306.421 242.509C307.871 243.161 309.113 244.201 310.01 245.514C310.906 246.827 311.422 248.363 311.5 249.951C311.579 251.539 311.217 253.118 310.454 254.513C309.692 255.908 308.558 257.066 307.179 257.857L290.697 283.34L241.075 308.512Z" fill="#A0616A"/>
<path d="M226.971 294.052L247.865 283.379L253.396 304.147L238.883 314.905L226.971 294.052Z" fill="#6C63FF"/>
<path d="M180.086 647.062L192.719 647.061L198.729 598.332L180.083 598.333L180.086 647.062Z" fill="#A0616A"/>
<path d="M196.923 648.199V639.634L193.602 639.837L180.082 640.638L176.953 640.83L174.561 669.514L174.433 671.052H183.403L183.692 669.525L184.994 662.584L188.358 669.525L189.095 671.052H212.878C214.293 671.043 215.647 670.476 216.647 669.475C217.647 668.473 218.211 667.117 218.217 665.702C219.221 661.014 199.443 650.879 196.923 648.199Z" fill="#2F2E41"/>
<path d="M30.123 453.676L27.178 465.962L73.163 483.168L77.509 465.036L30.123 453.676Z" fill="#A0616A"/>
<path d="M26.0913 469.784L34.4198 471.781L34.9969 468.504L37.3703 455.171L37.9129 452.083L10.5773 443.069L9.11171 442.586L7.02015 451.309L8.43794 451.945L14.8843 454.831L7.34983 456.483L5.693 456.844L0.14793 479.971C-0.173328 481.349 0.0620905 482.798 0.803112 484.004C1.54413 485.21 2.7309 486.075 4.10569 486.411C8.43055 488.48 22.8971 471.61 26.0913 469.784Z" fill="#2F2E41"/>
<path d="M199.62 331.69L183.358 324.088L150.93 363.332L131.178 368.328C129.761 367.606 128.173 367.289 126.588 367.413C125.002 367.538 123.482 368.097 122.195 369.031C120.909 369.965 119.905 371.236 119.295 372.705C118.685 374.173 118.493 375.781 118.74 377.352C118.987 378.923 119.663 380.395 120.694 381.605C121.725 382.816 123.071 383.718 124.582 384.211C126.093 384.705 127.712 384.772 129.259 384.404C130.805 384.035 132.22 383.247 133.347 382.125L162.271 372.933L199.62 331.69Z" fill="#A0616A"/>
<path d="M352 167C345.671 167 339.484 165.123 334.222 161.607C328.959 158.091 324.858 153.093 322.436 147.246C320.014 141.399 319.38 134.965 320.615 128.757C321.85 122.55 324.897 116.848 329.373 112.373C333.848 107.897 339.55 104.85 345.757 103.615C351.965 102.38 358.399 103.014 364.246 105.436C370.093 107.858 375.091 111.959 378.607 117.222C382.123 122.484 384 128.671 384 135C383.991 143.484 380.616 151.618 374.617 157.617C368.618 163.616 360.484 166.991 352 167V167ZM352 106.672C346.397 106.672 340.92 108.334 336.262 111.446C331.604 114.559 327.973 118.983 325.829 124.159C323.685 129.336 323.124 135.031 324.217 140.526C325.31 146.022 328.008 151.069 331.969 155.031C335.931 158.992 340.979 161.69 346.474 162.783C351.969 163.876 357.664 163.315 362.841 161.171C368.017 159.027 372.441 155.396 375.554 150.738C378.666 146.08 380.328 140.603 380.328 135C380.319 127.49 377.332 120.289 372.021 114.979C366.711 109.668 359.51 106.681 352 106.672V106.672Z" fill="white"/>
<path d="M345.046 146C344.982 146 344.917 145.998 344.852 145.995C344.28 145.967 343.721 145.816 343.214 145.552C342.706 145.288 342.261 144.917 341.91 144.464L336.837 137.936C336.517 137.524 336.281 137.052 336.142 136.549C336.004 136.045 335.966 135.52 336.031 135.002C336.095 134.483 336.261 133.983 336.519 133.529C336.777 133.075 337.121 132.677 337.533 132.356L337.716 132.214C338.127 131.893 338.598 131.657 339.101 131.518C339.604 131.379 340.13 131.341 340.647 131.406C341.165 131.471 341.665 131.637 342.118 131.895C342.572 132.154 342.97 132.499 343.29 132.911C343.546 133.241 343.871 133.511 344.241 133.703C344.611 133.895 345.018 134.005 345.434 134.026C345.851 134.046 346.267 133.976 346.654 133.821C347.041 133.665 347.39 133.428 347.677 133.125L357.976 122.24C358.701 121.476 359.699 121.03 360.752 121.001C361.804 120.973 362.825 121.363 363.591 122.087L363.76 122.248C364.138 122.607 364.443 123.038 364.655 123.514C364.868 123.991 364.984 124.505 364.999 125.027C365.013 125.549 364.924 126.069 364.737 126.556C364.551 127.044 364.27 127.49 363.911 127.869L347.928 144.758C347.557 145.15 347.111 145.463 346.615 145.676C346.119 145.89 345.586 146 345.046 146Z" fill="white"/>
<path d="M71 216C63.6821 216 56.5285 213.859 50.4439 209.849C44.3593 205.838 39.6169 200.137 36.8165 193.468C34.0161 186.798 33.2833 179.46 34.7109 172.379C36.1386 165.299 39.6625 158.795 44.837 153.691C50.0116 148.586 56.6044 145.11 63.7817 143.701C70.959 142.293 78.3984 143.016 85.1593 145.778C91.9201 148.541 97.6988 153.219 101.764 159.222C105.83 165.224 108 172.281 108 179.5C107.989 189.177 104.087 198.455 97.1508 205.297C90.2144 212.14 80.8096 215.989 71 216ZM71 147.189C64.5219 147.189 58.1893 149.084 52.8029 152.634C47.4166 156.185 43.2184 161.231 40.7394 167.135C38.2603 173.039 37.6117 179.536 38.8755 185.804C40.1393 192.071 43.2588 197.829 47.8396 202.348C52.4203 206.866 58.2564 209.944 64.61 211.19C70.9636 212.437 77.5494 211.797 83.5344 209.352C89.5194 206.906 94.6348 202.765 98.2339 197.451C101.833 192.138 103.754 185.891 103.754 179.5C103.744 170.933 100.29 162.721 94.1496 156.663C88.0092 150.606 79.6838 147.198 71 147.189V147.189Z" fill="white"/>
<path d="M68.2939 194C68.2204 194 68.1468 193.998 68.073 193.994C67.4225 193.962 66.7865 193.787 66.2086 193.48C65.6306 193.174 65.1245 192.743 64.7248 192.219L58.9526 184.645C58.5881 184.167 58.3194 183.621 58.1619 183.037C58.0045 182.453 57.9613 181.843 58.0348 181.242C58.1084 180.641 58.2972 180.06 58.5906 179.534C58.884 179.007 59.2762 178.545 59.7447 178.173L59.9524 178.008C60.4208 177.636 60.9565 177.362 61.5289 177.201C62.1013 177.04 62.6992 176.996 63.2883 177.071C63.8774 177.146 64.4463 177.339 64.9623 177.639C65.4783 177.938 65.9314 178.339 66.2957 178.817C66.5872 179.199 66.9562 179.512 67.3773 179.735C67.7984 179.959 68.2618 180.086 68.7357 180.11C69.2096 180.133 69.683 180.052 70.1233 179.872C70.5637 179.692 70.9607 179.416 71.2873 179.065L83.007 166.438C83.832 165.552 84.968 165.035 86.1658 165.002C87.3636 164.968 88.5254 165.421 89.3964 166.261L89.5885 166.448C90.0195 166.865 90.3658 167.364 90.6077 167.917C90.8496 168.47 90.9823 169.066 90.9984 169.672C91.0144 170.277 90.9133 170.88 90.701 171.445C90.4887 172.011 90.1693 172.528 89.761 172.968L71.5734 192.559C71.1514 193.015 70.643 193.377 70.0792 193.625C69.5153 193.872 68.9078 194 68.2939 194Z" fill="white"/>
<path d="M183.225 394.904C183.225 394.904 156.545 412.277 163.6 423.821C163.843 424.22 131.73 466.633 131.73 466.633L71.1081 462.784L68.9723 483.074L122.942 498.705C122.942 498.705 136.145 508.405 146.345 497.718C156.545 487.03 190.519 454.302 190.519 454.302L192.158 520.379L175.103 611.942L200.568 610.328L225.354 518.467L234.502 414.413L183.225 394.904Z" fill="#2F2E41"/>
<path d="M202.23 290.635L191.01 299.138L178.222 326.431L190.519 343.132C190.519 343.132 200.863 361.059 184.306 378.419C167.749 395.78 155.035 414.322 168.288 413.66C181.54 412.998 235.213 440.298 235.566 417.932C235.919 395.567 236.634 378.419 236.634 378.419L250.706 342.728C250.706 342.728 259.089 321.437 253.203 315.063C247.317 308.69 239.436 300.546 239.436 300.546L225.104 286.214H212.163L202.23 290.635Z" fill="#6C63FF"/>
<path d="M223.174 238.193C248.345 252.516 227.681 290.308 202.042 276.851C176.872 262.528 197.536 224.737 223.174 238.193Z" fill="#A0616A"/>
<path d="M236.634 246.135C234.87 248.429 231.185 247.353 223.969 248.99C223.985 246.544 223.703 244.106 223.128 241.728C222.591 244.672 221.415 247.462 219.681 249.901C213.416 250.596 221.097 269.631 217.888 283.626C213.755 254.101 205.061 261.836 209.453 267.692C212.265 271.441 210.39 282.688 201.955 277.065C188.037 283.679 168.214 250.821 190.184 235.411C189.791 227.082 199.06 225.766 204.767 228.327C218.617 218.009 234.442 231.23 236.634 246.135Z" fill="#2F2E41"/>
<path d="M172.052 224.591C166.448 259.046 136.412 218.255 122.289 252.161C117.848 264.44 125.467 273.224 130.286 283.416C131.386 291.792 120.49 296.042 119.348 303.752C119.03 321.429 147.548 320.347 155.52 309.195C163.712 297.52 153.93 281.857 158.854 269.326C165.774 251.929 193.917 251.8 196.369 231.559C191.621 224.797 178.853 217.053 172.052 224.591Z" fill="#2F2E41"/>
<path d="M194.753 227.958C194.57 228.035 194.386 228.112 194.222 228.199H194.213C194.058 228.276 193.904 228.354 193.75 228.44C193.73 228.45 193.721 228.46 193.701 228.469C193.499 228.276 193.296 228.083 193.084 227.89C193.029 228.205 193.042 228.527 193.122 228.836L193.151 228.952C193.344 229.154 193.547 229.347 193.759 229.55C193.952 229.405 194.136 229.251 194.329 229.106C194.444 229.01 194.56 228.913 194.686 228.817C194.705 228.566 194.734 228.276 194.763 227.958L194.753 227.958ZM200.562 217.228C196.258 216.244 194.869 221.87 194.454 224.581C192.891 214.739 186.388 217.836 188.636 224.552C189.352 226.54 190.48 228.355 191.945 229.878C192.148 230.11 192.37 230.341 192.601 230.573C192.341 231.924 193.653 231.576 195.429 230.332C196.739 229.399 197.952 228.336 199.047 227.157C202.588 223.442 205.348 218.473 200.562 217.228V217.228ZM200.697 222.767C199.369 224.479 197.88 226.059 196.249 227.485C195.737 227.948 195.216 228.392 194.686 228.817C194.676 228.904 194.676 228.981 194.666 229.048C194.629 229.142 194.584 229.232 194.531 229.318C193.991 230.293 193.383 229.762 193.151 228.952C193.132 228.923 193.103 228.894 193.084 228.865C192.313 228.068 191.642 227.181 191.087 226.221C187.102 219.313 193.518 214.614 193.2 227.514C193.141 227.632 193.102 227.76 193.084 227.89C193.029 228.205 193.042 228.527 193.122 228.836L193.151 228.952C193.344 229.154 193.547 229.347 193.759 229.55C193.952 229.405 194.136 229.251 194.329 229.106C194.444 229.01 194.56 228.913 194.686 228.817C194.705 228.566 194.734 228.276 194.763 227.958V227.948C195.014 225.362 195.699 220.712 196.963 219.448C199.742 217.315 203.341 219.621 200.697 222.767V222.767ZM194.753 227.958C194.57 228.035 194.386 228.112 194.222 228.199H194.213C194.058 228.276 193.904 228.354 193.75 228.44C193.73 228.45 193.721 228.46 193.701 228.469C193.499 228.276 193.296 228.083 193.084 227.89C193.029 228.205 193.042 228.527 193.122 228.836L193.151 228.952C193.344 229.154 193.547 229.347 193.759 229.55C193.952 229.405 194.136 229.251 194.329 229.106C194.444 229.01 194.56 228.913 194.686 228.817C194.705 228.566 194.734 228.276 194.763 227.958L194.753 227.958Z" fill="#2F2E41"/>
<path d="M427.396 417.918L418.1 442.161L374.492 528.181L412.81 628.248L432.586 623.028L416.286 528.181L463.05 471.361L518.586 509.028C518.586 509.028 543.216 528.256 552.586 510.028C561.956 491.799 622.586 453.028 622.586 453.028L607.586 437.028L537.767 469.701L489.578 401.874L427.396 417.918Z" fill="#2F2E41"/>
<path d="M474.303 303.563L459 287.122L432.75 283.511L400.586 306.028L400.91 330.951L416.81 389.68C416.81 389.68 410.754 431.874 427.67 431.451C444.586 431.028 453.807 422.594 460.697 424.311C467.586 426.028 496.874 433.334 498.73 425.681C500.586 418.028 510.452 423.508 510.019 416.268C509.586 409.028 483.31 356.841 483.31 356.841L489.843 304.649L474.303 303.563Z" fill="#6C63FF"/>
<path d="M571.194 227.883C571.331 229.246 571.167 230.623 570.715 231.916C570.262 233.21 569.531 234.388 568.574 235.368C567.616 236.349 566.455 237.107 565.173 237.591C563.891 238.074 562.518 238.27 561.152 238.165L525.961 305.092L516.513 290.588L552.483 227.424C552.811 225.14 553.965 223.056 555.727 221.567C557.489 220.077 559.736 219.286 562.042 219.342C564.349 219.399 566.554 220.3 568.241 221.874C569.928 223.448 570.978 225.586 571.194 227.883V227.883Z" fill="#FFB6B6"/>
<path d="M460.41 316.007C460.41 316.007 459.014 327.912 472.416 330.859C485.818 333.807 522.949 312.59 529.036 309.35C530.942 308.335 533.528 303.361 536.182 297.008C537.374 294.155 538.579 291.024 539.742 287.849C540.415 286.011 543.638 285.51 544.272 283.687C544.903 281.875 542.945 278.741 543.516 277.033C546.228 268.926 548.149 262.493 548.149 262.493L539.266 245.808C526.843 252.376 520.471 266.842 515.785 283.509L460.41 316.007Z" fill="#6C63FF"/>
<path d="M303.89 243.252C304.098 244.606 304.602 245.898 305.364 247.037C306.126 248.176 307.128 249.134 308.3 249.844C309.473 250.553 310.786 250.997 312.149 251.144C313.511 251.291 314.889 251.137 316.186 250.694L367.006 306.684L372.523 290.278L321.891 238.125C321.002 235.996 319.363 234.267 317.284 233.266C315.206 232.265 312.832 232.061 310.613 232.693C308.394 233.325 306.484 234.749 305.245 236.695C304.006 238.641 303.524 240.974 303.89 243.252V243.252Z" fill="#FFB6B6"/>
<path d="M433.203 300.848C433.203 300.848 437.533 312.024 425.295 318.232C413.057 324.439 371.799 313.19 365.094 311.576C362.995 311.071 359.246 306.903 355.087 301.415C353.219 298.951 351.269 296.222 349.348 293.439C348.237 291.828 344.991 292.149 343.921 290.543C342.857 288.946 343.968 285.423 342.987 283.912C338.333 276.741 334.864 270.994 334.864 270.994L339.288 252.616C352.959 255.866 362.749 268.278 371.457 283.242L433.203 300.848Z" fill="#6C63FF"/>
<path d="M446.399 279.329C460.193 279.329 471.375 268.147 471.375 254.353C471.375 240.559 460.193 229.377 446.399 229.377C432.605 229.377 421.423 240.559 421.423 254.353C421.423 268.147 432.605 279.329 446.399 279.329Z" fill="#FFB6B6"/>
<path d="M474.909 240.052C472.282 235.987 467.352 233.279 462.573 234.04C462.128 230.99 460.854 228.12 458.892 225.743C456.929 223.367 454.352 221.574 451.44 220.56C448.529 219.547 445.396 219.352 442.382 219.996C439.367 220.64 436.587 222.099 434.345 224.213C433.607 223.694 432.748 223.374 431.85 223.284C430.953 223.194 430.047 223.338 429.221 223.701C427.576 224.449 426.145 225.597 425.059 227.042C422.317 230.462 420.553 234.561 419.956 238.904C419.358 243.247 419.95 247.671 421.667 251.705C421.083 249.581 423.211 247.583 425.361 247.107C427.511 246.63 429.766 247.081 431.947 246.771C434.741 246.373 437.254 244.752 440.052 244.387C442.426 244.233 444.807 244.539 447.064 245.288C449.321 246.038 451.699 246.357 454.073 246.23C456.429 245.95 459.464 254.877 459.423 261.165C459.415 262.357 459.661 263.887 460.825 264.14C462.259 264.451 463.09 262.472 464.455 261.933C465.084 261.752 465.759 261.823 466.337 262.13C466.915 262.438 467.351 262.957 467.553 263.58C467.725 264.212 467.743 264.877 467.606 265.518C467.47 266.16 467.182 266.759 466.767 267.267C465.928 268.273 464.932 269.137 463.817 269.825L464.379 270.293C464.913 270.857 465.626 271.218 466.396 271.313C467.167 271.409 467.947 271.234 468.602 270.818C469.891 269.945 470.935 268.756 471.634 267.365C474.268 263.291 476.152 258.778 477.195 254.04C478.075 249.281 477.536 244.116 474.909 240.052Z" fill="#2F2E41"/>
<path d="M523.476 669.996C522.709 672.269 84.6349 672.269 83.807 670.002C84.5733 667.724 522.647 667.724 523.476 669.996Z" fill="#CCCCCC"/>
<path d="M186.839 667.155H29.8387C29.5735 667.155 29.3192 667.05 29.1317 666.862C28.9441 666.675 28.8387 666.42 28.8387 666.155C28.8387 665.89 28.9441 665.635 29.1317 665.448C29.3192 665.26 29.5735 665.155 29.8387 665.155H186.839C187.104 665.155 187.358 665.26 187.546 665.448C187.733 665.635 187.839 665.89 187.839 666.155C187.839 666.42 187.733 666.675 187.546 666.862C187.358 667.05 187.104 667.155 186.839 667.155Z" fill="#CCCCCC"/>
<path d="M569.792 51.8505C552.139 11.3475 511.151 -9.85924 478.242 4.48377C404.921 36.2016 457.241 172.984 532.764 154.258L536.044 166.918L557.883 157.399L550.843 146.379C577.125 128.545 585.797 88.5713 569.792 51.8505Z" fill="#16A085"/>
<path d="M479.177 114.252L470.927 117.848C461.453 103.575 454.557 87.7514 450.55 71.0958L458.801 67.4999C462.275 85.2209 469.068 100.805 479.177 114.252Z" fill="white"/>
<path d="M554.145 144.848L529.394 155.635L531.791 161.136L556.543 150.348L554.145 144.848Z" fill="#3F3D56"/>
<path d="M607.024 360.433C606.638 360.529 606.23 360.467 605.889 360.262C605.548 360.057 605.303 359.724 605.207 359.338L540 152.722L542.912 152L608.119 358.616C608.166 358.807 608.176 359.006 608.146 359.201C608.117 359.395 608.05 359.582 607.948 359.751C607.846 359.92 607.712 360.067 607.554 360.184C607.395 360.301 607.215 360.385 607.024 360.433Z" fill="white"/>
<path d="M298.732 127.622C315.048 86.5622 301.23 42.5299 267.869 29.2729C193.71 -0.432486 133.469 133.052 199.958 173.471L193.282 184.716L215.421 193.514L218.284 180.753C249.456 186.848 283.939 164.847 298.732 127.622Z" fill="#FF6584"/>
<path d="M190.61 107.254L182.247 103.93C185.705 87.1524 192.08 71.111 201.08 56.5354L209.444 59.859C199.313 74.8076 193.035 90.606 190.61 107.254Z" fill="white"/>
<path d="M196.606 172.048L194.391 177.624L219.482 187.595L221.698 182.019L196.606 172.048Z" fill="#3F3D56"/>
<path d="M115.607 394.568L113 393.084L206.278 180.216L208.885 181.699L115.607 394.568Z" fill="white"/>
</svg>
