<svg width="56" height="56" viewBox="0 0 56 56" fill="none" xmlns="http://www.w3.org/2000/svg">
<path d="M21.6047 41.7507C10.2112 41.7507 0.940674 32.4959 0.940674 21.1217C0.940674 9.74752 10.2112 0.492676 21.6047 0.492676C32.9982 0.492676 42.2688 9.74752 42.2688 21.1217C42.2688 32.4959 32.9982 41.7507 21.6047 41.7507ZM21.6047 8.74428C14.7678 8.74428 9.20631 14.2964 9.20631 21.1217C9.20631 27.947 14.7678 33.4991 21.6047 33.4991C28.4416 33.4991 34.0032 27.947 34.0032 21.1217C34.0032 14.2964 28.4416 8.74428 21.6047 8.74428V8.74428Z" fill="white"/>
<path d="M51.8323 55.2975C50.8193 55.2975 49.8042 54.9289 49.0071 54.1815L29.6124 36.0364C27.9455 34.4791 27.8608 31.8683 29.4227 30.2063C30.9806 28.5382 33.5959 28.4556 35.2627 30.0169L54.6575 48.162C56.3243 49.7192 56.4091 52.3301 54.8472 53.9921C54.0339 54.8604 52.9341 55.2975 51.8323 55.2975V55.2975Z" fill="white"/>
</svg>

